<svg width="400" height="400" viewBox="0 0 400 400" fill="none" xmlns="http://www.w3.org/2000/svg">
<path d="M235.338 56.5295C235.338 53.8514 237.471 51.7181 240.149 51.7181C242.828 51.7181 244.961 53.8514 244.961 56.5295C244.961 59.2075 242.828 61.3408 240.149 61.3408C237.471 61.3408 235.338 59.1621 235.338 56.5295ZM242.964 244.083C242.964 240.769 245.687 238.046 249.001 238.046C252.314 238.046 255.038 240.769 255.038 244.083C255.038 247.396 252.314 250.12 249.001 250.12C245.687 250.12 242.964 247.396 242.964 244.083ZM175.922 191.657C177.238 193.245 177.057 195.606 175.468 196.922C173.879 198.238 171.519 198.057 170.203 196.468C168.886 194.88 169.068 192.519 170.657 191.203C172.245 189.887 174.606 190.114 175.922 191.657ZM35.7563 201.779C35.7563 205.047 33.0783 207.725 29.8102 207.725C26.5421 207.725 23.864 205.047 23.864 201.779C23.864 198.511 26.5421 195.833 29.8102 195.833C33.0783 195.833 35.7563 198.465 35.7563 201.779ZM274.374 234.687C274.737 238 272.422 241.042 269.199 241.722C268.836 241.859 268.564 241.859 268.201 241.859C265.84 241.995 263.616 240.815 262.345 238.863C261.892 238.137 261.574 237.41 261.392 236.684C260.757 233.779 261.982 230.647 263.344 228.06C264.706 225.563 266.34 223.249 268.11 221.024C268.927 219.98 269.835 218.936 270.743 217.938C270.788 217.983 283.634 223.521 286.448 229.467C286.811 230.012 286.992 230.602 287.083 231.192C287.855 234.732 285.585 238.227 282.045 239.044C278.731 239.68 275.418 237.819 274.374 234.687ZM262.028 146.902C263.072 144.269 266.067 142.953 268.745 143.997C271.378 145.041 272.694 148.037 271.65 150.715C270.606 153.347 267.611 154.664 264.933 153.62C262.3 152.576 260.984 149.58 262.028 146.902ZM201.023 157.523C200.387 154.891 201.84 152.122 204.427 151.123C204.7 150.987 204.972 150.942 205.244 150.896C207.151 150.488 209.148 151.259 210.419 152.666C210.827 153.166 211.19 153.756 211.417 154.346C212.325 156.661 211.644 159.339 210.827 161.608C210.01 163.832 208.966 165.92 207.786 167.963C207.196 168.916 206.561 169.869 206.016 170.823C205.925 170.823 194.759 167.827 191.763 163.333C191.446 162.925 191.219 162.471 191.037 161.971C189.993 159.112 191.4 155.98 194.214 154.936C196.847 153.983 199.797 155.117 201.023 157.523ZM98.2136 30.6569C97.5327 29.159 98.2136 27.3888 99.7568 26.7079C101.255 26.0271 103.025 26.7079 103.706 28.2512C104.387 29.7945 103.66 31.5647 102.163 32.2002C100.665 32.881 98.8944 32.2002 98.2136 30.6569ZM161.942 64.9267C162.305 64.4728 162.713 64.0189 163.213 63.6558C166.027 61.5678 170.021 62.1579 172.109 64.9721C174.061 67.6047 173.743 71.236 171.428 73.4147C174.197 71.8714 177.738 72.5977 179.689 75.1849C179.916 75.4573 180.098 75.7296 180.234 76.002C181.278 77.9991 181.142 80.4502 179.916 82.3566C179.508 83.0375 178.963 83.5822 178.373 84.0361C176.104 85.7609 172.881 85.8971 170.021 85.7155C167.298 85.5339 164.574 84.9893 161.942 84.3538C160.671 84.0361 159.4 83.6275 158.129 83.3098C158.129 83.2644 157.811 69.7381 161.942 64.9267ZM207.559 367.862C207.559 371.584 204.518 374.626 200.796 374.626C197.074 374.626 194.033 371.584 194.033 367.862C194.033 364.14 197.074 361.099 200.796 361.099C204.518 361.099 207.559 364.095 207.559 367.862ZM55.5465 234.778C55.5465 237.047 53.6855 238.908 51.416 238.908C49.1465 238.908 47.2855 237.047 47.2855 234.778C47.2855 232.508 49.1465 230.647 51.416 230.647C53.6855 230.647 55.5465 232.508 55.5465 234.778ZM220.995 136.008C218.952 137.052 217.545 138.732 216.773 140.819C216.093 142.817 216.183 145.041 216.864 146.902C216.955 147.22 216.41 147.038 216.183 146.72C214.958 145.041 214.141 143.225 213.687 141.228C212.961 138.096 213.142 135.01 214.232 132.014C216.456 125.841 220.949 122.482 225.125 124.116C227.894 125.205 228.938 128.564 227.712 131.151C226.487 133.92 223.582 134.692 220.995 136.008ZM253.812 309.763C250.589 312.032 248.592 316.39 247.73 320.112C247.73 320.793 243.327 325.876 241.193 327.964C242.056 325.876 242.964 322.79 242.828 320.566C242.737 317.978 241.466 314.846 238.425 314.665C231.071 314.166 236.155 327.374 237.744 331.051C235.701 332.957 233.568 334.773 231.435 336.543C232.297 334.637 232.478 332.367 232.297 330.37C232.025 327.783 230.708 324.424 227.576 324.378C224.762 324.288 223.31 327.329 223.582 329.78C223.945 333.048 225.988 336.634 227.939 339.357C227.259 339.857 226.532 340.401 225.806 340.946C223.173 342.898 220.132 344.94 217.409 346.574C217.954 345.213 218.634 343.397 218.68 342.035C218.771 339.493 217.908 335.227 214.776 334.727C211.463 334.183 209.874 338.041 209.829 340.764C209.783 343.896 211.871 347.845 212.961 348.98C212.915 349.025 203.519 353.791 198.663 356.152C197.982 356.515 198.345 357.559 199.117 357.332C203.837 355.834 208.875 353.655 213.324 351.25C213.551 353.61 215.003 356.923 216.683 358.739C218.498 360.691 221.812 363.142 224.444 361.689C227.486 360.01 226.169 356.333 224.581 354.336C222.583 351.93 220.132 350.206 217.182 349.116C220.722 347.028 223.809 344.895 227.032 342.535C227.486 342.171 227.985 341.854 228.484 341.491C230.254 345.712 236.291 353.61 240.331 349.207C242.237 347.074 241.193 344.123 239.332 342.444C237.244 340.537 234.476 339.448 231.661 339.04C234.476 336.815 236.745 334.909 239.332 332.413C241.466 335.318 244.87 337.632 248.32 338.722C250.635 339.493 253.767 338.858 254.357 336.089C255.628 330.552 246.459 329.235 241.602 330.098C244.507 327.193 246.776 324.605 249.273 321.383C254.266 321.973 263.798 316.072 260.348 310.444C258.896 308.038 255.945 308.356 253.812 309.763ZM211.871 341.945C211.1 338.858 213.868 334.818 215.729 338.313C217.454 341.491 214.595 347.709 214.595 347.709C214.595 347.709 212.643 345.031 211.871 341.945ZM217.772 351.976C218.861 352.475 219.86 353.111 220.813 353.791C221.585 354.336 222.311 355.108 222.901 355.789C223.854 356.878 224.581 358.058 223.627 359.102C222.311 360.464 220.541 359.238 219.27 358.149C218.453 357.468 218.135 356.878 217.454 355.97C216.319 354.336 215.729 352.884 215.593 350.886C216.274 351.25 217.046 351.613 217.772 351.976ZM230.209 332.685C230.164 334.228 229.664 335.635 229.165 337.042C228.212 335.454 227.349 333.865 226.669 332.186C226.305 331.323 225.897 330.415 225.806 329.462C225.715 328.237 226.442 326.239 228.076 326.693C230.027 327.283 230.254 330.96 230.209 332.685ZM234.612 342.217C235.52 342.625 236.382 343.125 237.154 343.76C237.925 344.396 238.652 345.031 238.879 346.075C239.015 346.62 238.924 347.21 238.47 347.573C238.288 347.755 238.016 347.845 237.744 347.891C237.018 348.027 236.246 347.755 235.61 347.301C234.521 346.574 233.704 345.394 232.887 344.396C232.025 343.306 231.344 342.126 230.799 340.901C232.115 341.173 233.386 341.581 234.612 342.217ZM240.785 323.652C240.513 325.468 239.877 327.102 239.105 328.691C238.47 327.329 237.925 325.967 237.471 324.515C237.018 323.153 234.793 315.981 238.652 316.844C241.42 317.479 241.148 321.655 240.785 323.652ZM251.089 333.729C253.222 335.363 250.725 336.906 248.955 336.407C247.866 336.089 246.459 335.635 245.596 335C244.325 334.137 242.283 332.912 241.375 331.822C244.371 331.868 248.728 331.868 251.089 333.729ZM258.169 314.347C256.989 317.434 253.086 318.432 250.045 319.204C250.862 317.479 251.724 315.754 252.813 314.166C253.585 313.076 254.493 311.851 255.764 311.306C256.762 310.897 258.26 311.034 258.533 312.259C258.669 312.985 258.442 313.712 258.169 314.347ZM40.4315 121.256C40.4315 123.843 38.3436 125.931 35.7563 125.931C33.1691 125.931 31.0811 123.843 31.0811 121.256C31.0811 118.669 33.1691 116.581 35.7563 116.581C38.3436 116.581 40.4315 118.669 40.4315 121.256ZM201.295 323.652C201.295 321.065 203.383 318.977 205.97 318.977C208.558 318.977 210.646 321.065 210.646 323.652C210.646 326.239 208.558 328.327 205.97 328.327C203.383 328.327 201.295 326.239 201.295 323.652ZM121.953 281.348C120.183 282.846 119.184 284.798 118.957 286.977C118.775 289.065 119.366 291.198 120.455 292.877C120.636 293.15 120.046 293.059 119.774 292.832C118.185 291.47 117.005 289.882 116.052 288.066C114.645 285.252 114.146 282.165 114.463 278.988C115.144 272.452 118.821 268.14 123.269 268.821C126.219 269.274 128.035 272.316 127.4 275.084C126.855 278.08 124.222 279.487 121.953 281.348ZM113.782 217.212C113.056 218.891 113.011 220.661 113.601 222.295C114.191 223.884 115.371 225.2 116.733 226.017C116.96 226.154 116.506 226.29 116.234 226.199C114.6 225.79 113.192 225.019 111.876 224.02C109.879 222.477 108.472 220.434 107.609 218.029C105.839 213.081 106.974 208.724 110.424 207.634C112.693 206.953 115.053 208.497 115.598 210.721C116.143 213.126 114.736 215.078 113.782 217.212ZM87.683 229.694C88.727 231.51 88.1823 233.87 86.3213 235.005C84.4603 236.049 82.0546 235.459 81.0106 233.643C79.9666 231.782 80.5567 229.376 82.3723 228.332C84.2333 227.243 86.5936 227.878 87.683 229.694ZM220.813 71.5083C220.813 68.8303 222.946 66.6969 225.625 66.6969C228.303 66.6969 230.436 68.8303 230.436 71.5083C230.436 74.1863 228.303 76.3197 225.625 76.3197C222.946 76.3197 220.813 74.1409 220.813 71.5083ZM383.901 187.753C383.901 190.431 381.768 192.565 379.09 192.565C376.412 192.565 374.278 190.431 374.278 187.753C374.278 185.075 376.412 182.942 379.09 182.942C381.768 182.942 383.901 185.075 383.901 187.753ZM388.349 112.314C390.619 112.36 392.661 111.588 394.295 110.045C395.839 108.592 396.792 106.595 397.064 104.598C397.11 104.28 397.518 104.689 397.564 105.052C397.881 107.049 397.745 109.092 397.2 111.043C396.383 114.13 394.749 116.763 392.389 118.987C387.578 123.435 381.995 124.252 379.09 120.848C377.183 118.578 377.773 115.083 380.088 113.404C382.539 111.588 385.444 112.269 388.349 112.314ZM392.48 167.963C392.48 171.231 389.802 173.909 386.534 173.909C383.266 173.909 380.588 171.231 380.588 167.963C380.588 164.695 383.266 162.017 386.534 162.017C389.802 162.017 392.48 164.649 392.48 167.963ZM13.288 115.628C12.2895 120.621 11.654 126.022 11.6086 131.015C11.654 131.923 12.7434 131.968 12.8795 131.197C13.742 125.886 15.5576 115.446 15.603 115.401C16.9647 116.172 21.3675 116.99 24.3633 116.036C26.996 115.219 30.2187 112.541 28.7208 109.545C27.3591 106.686 23.0016 107.094 20.5959 107.911C19.325 108.365 17.7817 109.5 16.6016 110.408C17.3732 107.321 18.4626 103.826 19.5519 100.74C19.8697 99.8773 20.1874 99.0603 20.4597 98.2433C23.6371 99.2873 27.6768 100.24 30.8995 99.605C33.3052 99.1511 35.8471 96.8816 34.9393 94.2489C33.9861 91.2985 30.4002 91.0262 27.813 91.4801C25.8158 91.8432 23.7279 92.7056 22.1392 94.0673C23.2286 91.4801 24.3633 88.9382 25.5889 86.4418C29.5832 86.8957 43.6543 87.9396 41.067 81.0403C40.023 78.1807 36.6641 77.863 34.1677 78.4984C31.9889 79.0431 29.3109 80.7679 27.586 82.2204C28.9931 79.5878 32.5336 73.914 33.2145 73.687C36.528 71.7353 40.1138 68.6033 41.3393 64.8359C42.0656 62.3848 41.5209 59.4798 38.7975 58.799C32.3974 57.1195 29.4924 67.9678 31.4896 72.5523C29.1293 75.8658 27.3137 78.8162 25.3619 82.4474C24.7718 77.5452 20.9136 69.148 15.9661 71.9622C13.515 73.3693 13.8327 76.5012 15.1945 78.4984C17.237 81.4942 20.4144 84.1268 23.8186 85.307C22.1392 88.4843 21.0044 91.2078 19.6881 94.5666C18.4626 92.0248 16.6469 89.6645 14.1959 88.212C12.0171 86.941 8.88518 86.8049 7.43269 89.2106C4.39153 94.3397 13.6966 97.8347 18.2356 98.334C18.0087 98.9241 17.8725 99.4688 17.6455 100.013C16.3292 103.781 15.1944 107.367 14.1959 111.361C12.3349 108.865 9.97455 107.004 7.06956 105.778C4.70926 104.825 0.80568 104.598 0.0794327 108.002C-0.556033 110.953 2.75747 113.404 5.16316 114.584C7.34191 115.673 10.9277 116.082 13.288 115.628ZM26.2243 94.2489C27.813 93.7042 31.3988 92.8872 32.5336 94.5666C33.4414 95.9737 31.7166 97.2447 30.5364 97.517C29.5832 97.6986 28.6754 97.6078 27.7222 97.4716C25.952 97.2901 24.1818 96.9269 22.3661 96.5184C23.5463 95.656 24.7718 94.7482 26.2243 94.2489ZM35.7109 62.1579C36.2556 61.704 36.8911 61.2955 37.6173 61.2047C38.8883 61.0685 39.4783 62.4756 39.3422 63.565C39.206 64.9267 38.2982 66.1976 37.4358 67.2416C36.2556 68.7395 34.8031 70.0558 33.396 71.3267C33.3052 68.1948 33.1237 64.2004 35.7109 62.1579ZM31.8981 81.4942C33.7137 80.5864 37.6173 79.0885 39.0244 81.5396C40.9762 84.9893 33.4414 84.8985 31.9889 84.8531C30.4456 84.8985 28.9931 84.8077 27.5406 84.5807C28.857 83.3552 30.2187 82.2658 31.8981 81.4942ZM19.5973 80.1779C18.7349 79.497 17.9179 78.3169 17.2824 77.3637C16.2838 75.8204 17.0101 72.9608 19.2342 74.5495C21.6853 76.2743 22.9562 80.4502 23.864 83.3098C22.5477 82.7197 20.7775 81.1311 19.5973 80.1779ZM14.2866 95.0205C13.1065 94.5213 11.7448 94.022 10.7462 93.2049C10.1561 92.751 9.70221 92.0702 9.56604 91.3439C9.52064 91.0716 9.56603 90.7992 9.65681 90.5723C9.88377 90.073 10.4285 89.8006 10.9731 89.7553C12.0625 89.7099 12.8341 90.2092 13.6966 90.7538C14.5136 91.2985 15.2852 91.9794 15.9207 92.751C16.8285 93.7496 17.6001 94.839 18.281 96.0191C16.8739 95.8376 15.5122 95.5652 14.2866 95.0205ZM24.9988 109.682C28.9024 110.499 25.8158 114.266 22.6839 114.448C19.5519 114.584 16.42 113.494 16.42 113.494C16.42 113.494 21.4583 108.955 24.9988 109.682ZM7.65964 113.131C6.61566 112.768 5.9348 112.632 5.07238 112.042C3.66528 111.134 1.98583 109.772 2.89364 108.138C3.61989 106.958 4.93621 107.321 6.25253 107.911C7.06956 108.229 8.02276 108.728 8.74901 109.319C9.70221 110.045 10.5646 110.862 11.3817 111.724C11.9263 112.314 12.5164 112.95 13.0611 113.54C11.0639 113.903 9.52065 113.767 7.65964 113.131ZM374.324 207.044C374.324 209.314 372.463 211.175 370.193 211.175C367.924 211.175 366.063 209.314 366.063 207.044C366.063 204.775 367.924 202.914 370.193 202.914C372.463 202.914 374.324 204.775 374.324 207.044ZM326.391 118.851C326.391 120.258 325.257 121.392 323.849 121.392C322.442 121.392 321.308 120.258 321.308 118.851C321.308 117.443 322.442 116.309 323.849 116.309C325.257 116.309 326.391 117.443 326.391 118.851ZM96.171 227.424C96.8065 227.833 97.5327 227.016 96.988 226.426C93.3114 222.477 86.2759 214.579 86.2759 214.534C87.7284 213.898 91.1327 210.993 92.1766 208.043C93.1298 205.455 93.0391 201.28 89.7709 200.599C86.6844 199.918 84.3241 203.549 83.5071 206C83.0532 207.271 83.0078 209.223 83.0078 210.675C81.056 208.179 79.0134 205.138 77.2432 202.369C76.7893 201.597 76.29 200.826 75.8361 200.099C78.6503 198.238 81.873 195.651 83.3709 192.746C84.5057 190.567 84.2787 187.209 81.6461 186.255C78.7411 185.211 76.29 187.844 75.0644 190.159C74.1566 191.975 73.5212 194.153 73.6119 196.241C72.2502 193.79 70.9793 191.339 69.7538 188.797C72.568 185.938 82.1 175.498 75.0644 173.319C72.1595 172.366 69.8445 174.817 68.8006 177.177C67.8927 179.22 67.575 182.397 67.6204 184.667C66.3949 181.943 64.1707 175.634 64.3977 174.953C64.897 171.14 64.67 166.42 62.4913 163.106C61.0388 161.018 58.4061 159.657 56.182 161.336C50.9167 165.33 57.5891 174.318 62.4913 175.589C63.626 179.492 64.8516 182.715 66.4856 186.482C62.2643 183.895 53.277 181.762 52.4146 187.39C52.0061 190.159 54.6387 191.884 57.0898 192.02C60.7211 192.292 64.7154 191.384 67.7566 189.433C69.2545 192.701 70.6616 195.288 72.4772 198.42C69.7084 197.784 66.7126 197.785 64.1253 198.783C61.765 199.691 59.7225 202.051 60.7211 204.729C62.8544 210.312 71.3878 205.138 74.5651 201.87C74.8829 202.414 75.246 202.868 75.5183 203.413C77.6971 206.772 79.785 209.904 82.3269 213.126C79.2404 213.081 76.29 213.762 73.5666 215.305C71.3424 216.576 68.8006 219.527 70.9793 222.205C72.8857 224.519 76.8801 223.475 79.2858 222.295C81.4645 221.251 84.0517 218.664 85.1411 216.576C88.4546 220.434 92.3128 224.293 96.171 227.424ZM56.8629 165.784C56.8629 165.103 56.9083 164.332 57.3168 163.696C57.9976 162.607 59.4501 163.015 60.2218 163.787C61.2204 164.74 61.6289 166.238 61.9466 167.554C62.3551 169.415 62.5367 171.367 62.6728 173.228C60.131 171.413 56.8629 169.052 56.8629 165.784ZM61.0842 189.569C60.0402 189.841 58.5877 189.75 57.4529 189.614C55.5919 189.478 53.8217 187.072 56.4544 186.346C59.314 185.484 63.3991 187.072 66.1679 188.116C64.8516 188.843 62.5367 189.251 61.0842 189.569ZM69.7084 180.763C70.1169 178.766 71.3424 174.772 74.1566 175.18C78.0602 175.77 73.3396 181.626 72.4318 182.76C71.4786 183.94 70.48 185.03 69.436 186.074C69.2998 184.304 69.2999 182.533 69.7084 180.763ZM69.436 202.959C68.3013 203.594 67.0757 204.366 65.8502 204.638C65.1239 204.82 64.3069 204.775 63.6714 204.412C63.4445 204.275 63.2629 204.094 63.1268 203.867C62.8544 203.413 62.9906 202.777 63.3083 202.324C63.9438 201.461 64.8516 201.143 65.7594 200.826C66.7126 200.508 67.7112 200.372 68.6644 200.326C70.0261 200.19 71.3424 200.281 72.6587 200.508C71.7055 201.416 70.6162 202.278 69.436 202.959ZM76.2446 193.019C76.7893 191.43 78.3779 188.071 80.4205 188.253C82.1 188.434 82.0546 190.522 81.5099 191.657C81.1014 192.519 80.4205 193.2 79.7397 193.881C78.4233 195.152 77.0616 196.332 75.6091 197.467C75.6545 195.969 75.6999 194.516 76.2446 193.019ZM79.5581 219.345C78.6503 219.935 78.1056 220.389 77.107 220.707C75.5183 221.251 73.4304 221.751 72.7041 220.026C72.2048 218.709 73.3396 217.892 74.6105 217.212C75.3822 216.803 76.3354 216.349 77.2432 216.122C78.3779 215.85 79.5581 215.623 80.7382 215.532C81.5553 215.487 82.4177 215.396 83.1893 215.351C82.3269 217.121 81.2375 218.256 79.5581 219.345ZM87.5922 203.594C90.6334 201.007 91.7227 205.773 89.9071 208.36C88.0915 210.902 85.2773 212.718 85.2773 212.718C85.2773 212.718 84.8688 205.909 87.5922 203.594ZM46.65 94.1127C48.0117 94.839 49.2373 95.8376 50.2359 97.0177C51.7791 98.8787 52.7323 101.057 53.0501 103.463C53.6855 108.411 51.7791 112.224 48.3749 112.541C46.1507 112.723 44.2443 110.816 44.1989 108.638C44.1535 106.323 45.833 104.825 47.1493 103.009C48.1479 101.602 48.6018 100.013 48.3749 98.334C48.1479 96.7454 47.3309 95.2929 46.1961 94.2489C45.9692 94.0673 46.3777 93.9766 46.65 94.1127ZM225.488 288.928C223.764 287.703 221.585 287.204 219.588 287.385C219.27 287.431 219.542 286.931 219.905 286.795C221.812 286.069 223.809 285.751 225.851 285.842C229.029 285.978 231.979 287.022 234.703 288.883C240.059 292.605 242.101 297.87 239.378 301.456C237.562 303.817 234.022 303.953 231.888 302.092C229.573 300.095 229.619 297.053 229.029 294.239C228.53 292.015 227.349 290.199 225.488 288.928ZM45.606 219.799C45.606 222.477 43.4727 224.61 40.7947 224.61C38.1166 224.61 35.9833 222.477 35.9833 219.799C35.9833 217.121 38.1166 214.987 40.7947 214.987C43.4727 214.987 45.606 217.121 45.606 219.799ZM250.317 45.1818C250.317 42.5038 252.45 40.3705 255.128 40.3705C257.806 40.3705 259.94 42.5038 259.94 45.1818C259.94 47.8599 257.806 49.9932 255.128 49.9932C252.45 49.9932 250.317 47.8145 250.317 45.1818ZM345.183 202.823C346.227 200.19 349.223 198.874 351.901 199.918C354.533 200.962 355.85 203.958 354.806 206.636C353.762 209.268 350.766 210.585 348.088 209.541C345.455 208.497 344.139 205.501 345.183 202.823ZM299.793 45.0003C299.793 44.9549 297.659 36.2399 299.656 32.5179C299.838 32.2002 300.019 31.8371 300.337 31.5193C301.926 29.7491 304.604 29.5221 306.329 31.1108C307.963 32.5179 308.281 34.9236 307.055 36.6938C308.644 35.2867 311.049 35.2413 312.638 36.6484C312.82 36.7846 312.956 36.9662 313.137 37.1477C314.136 38.3279 314.363 39.9166 313.864 41.3237C313.682 41.8683 313.455 42.2769 313.137 42.64C311.912 44.0925 309.869 44.6372 307.963 44.9095C306.147 45.2272 304.332 45.2272 302.516 45.2272C301.563 45.1365 300.7 45.0457 299.793 45.0003ZM63.4445 34.969C62.7636 33.4711 63.4445 31.7009 64.9878 31.02C66.4856 30.3392 68.2559 31.02 68.9367 32.5633C69.6176 34.1066 68.8913 35.8768 67.3935 36.5123C65.8956 37.1931 64.1253 36.5123 63.4445 34.969ZM79.6489 30.6569C78.968 29.159 79.6489 27.3888 81.1921 26.7079C82.69 26.0271 84.4603 26.7079 85.1411 28.2512C85.822 29.7945 85.0957 31.5647 83.5978 32.2002C82.1 32.881 80.3297 32.2002 79.6489 30.6569ZM158.174 53.216C157.493 51.7181 158.174 49.9478 159.718 49.267C161.215 48.5861 162.986 49.267 163.667 50.8103C164.347 52.3535 163.621 54.1238 162.123 54.7592C160.625 55.4401 158.855 54.7592 158.174 53.216ZM191.582 340.855C191.627 340.946 194.169 352.248 191.536 357.014C191.309 357.468 191.037 357.877 190.674 358.285C188.677 360.509 185.182 360.691 182.958 358.694C180.87 356.833 180.552 353.701 182.095 351.477C180.053 353.247 176.921 353.247 174.833 351.386C174.606 351.204 174.424 351.023 174.243 350.796C173.017 349.298 172.745 347.21 173.426 345.394C173.652 344.759 174.016 344.214 174.424 343.715C176.058 341.899 178.736 341.218 181.142 340.855C183.457 340.583 185.817 340.537 188.177 340.628C189.312 340.674 190.447 340.81 191.582 340.855ZM56.4544 217.302C53.9125 216.848 51.643 215.668 49.782 213.943C45.8784 210.312 44.8344 205.864 47.4217 203.322C49.1465 201.643 51.9607 201.915 53.504 203.685C55.138 205.546 54.7749 207.952 54.9111 210.312C55.0473 212.173 55.7735 213.762 57.1352 214.987C58.4061 216.168 60.0856 216.758 61.7196 216.848C61.992 216.848 61.6743 217.212 61.4019 217.302C59.7225 217.529 58.043 217.575 56.4544 217.302ZM139.428 319.749C139.428 322.018 137.567 323.879 135.298 323.879C133.028 323.879 131.167 322.018 131.167 319.749C131.167 317.479 133.028 315.618 135.298 315.618C137.567 315.618 139.428 317.479 139.428 319.749ZM128.988 310.217C128.988 312.486 127.127 314.347 124.858 314.347C122.588 314.347 120.727 312.486 120.727 310.217C120.727 307.947 122.588 306.086 124.858 306.086C127.127 306.086 128.988 307.947 128.988 310.217ZM108.154 289.519C108.835 291.062 108.109 292.832 106.611 293.468C105.113 294.148 103.343 293.468 102.662 291.924C101.981 290.426 102.662 288.656 104.205 287.975C105.703 287.294 107.473 287.975 108.154 289.519ZM90.2248 264.872C91.0873 266.324 90.9965 268.23 90.7241 269.865C90.4518 271.453 89.9979 272.996 89.4532 274.494C89.1809 275.221 88.8631 275.947 88.5908 276.673C88.5454 276.673 80.6475 275.992 78.0602 273.314C77.7879 273.087 77.6063 272.815 77.3793 272.497C76.3354 270.727 76.8801 268.412 78.6957 267.368C80.3297 266.415 82.4631 266.823 83.5978 268.276C82.8716 266.551 83.5071 264.508 85.1411 263.555C85.3227 263.464 85.5042 263.374 85.6858 263.283C86.9113 262.784 88.3638 263.056 89.4078 263.873C89.6802 264.145 89.9979 264.508 90.2248 264.872ZM219.588 308.537C222.175 308.537 224.263 310.625 224.263 313.212C224.263 315.8 222.175 317.888 219.588 317.888C217 317.888 214.912 315.8 214.912 313.212C214.912 310.625 217 308.537 219.588 308.537ZM344.82 188.888C345.909 185.574 342.414 183.804 339.918 183.396C336.831 182.987 333.835 183.396 330.976 184.576C332.156 180.672 332.973 176.996 333.745 173.047C333.835 172.457 333.972 171.912 334.108 171.276C338.284 173.137 348.088 174.862 348.043 168.916C347.997 166.102 345.228 164.604 342.732 164.604C339.918 164.604 337.149 165.693 334.789 167.282C335.333 163.742 335.742 160.791 335.923 157.205C339.464 157.886 343.504 157.251 346.817 155.708C349.041 154.664 350.902 152.122 349.495 149.671C346.681 144.723 339.055 149.988 336.059 153.937C336.196 149.852 336.15 146.403 335.787 142.317C339.872 139.367 342.868 128.564 336.468 126.748C333.745 125.977 331.793 128.201 331.203 130.697C330.386 134.556 331.884 139.095 333.745 142.454C334.198 142.953 334.425 149.671 334.289 152.666C333.518 150.533 332.065 147.673 330.476 146.13C328.615 144.269 325.62 142.862 323.214 144.814C317.495 149.444 330.159 155.708 333.835 157.296C333.608 160.11 333.291 162.834 332.928 165.603C332.247 163.651 330.885 161.835 329.342 160.474C327.39 158.794 324.122 157.205 321.807 159.248C319.674 161.109 320.672 164.332 322.578 165.92C325.03 168.054 328.979 169.325 332.292 170.006C332.111 170.868 331.974 171.73 331.793 172.638C331.157 175.861 330.34 179.401 329.432 182.488C328.888 181.126 328.162 179.356 327.299 178.312C325.62 176.36 322.079 173.818 319.492 175.589C316.678 177.45 318.13 181.353 319.946 183.396C322.034 185.711 326.255 187.254 327.844 187.299C327.844 187.345 324.167 197.285 322.215 202.278C321.898 203.095 322.896 203.549 323.305 202.868C325.756 198.556 327.98 193.563 329.614 188.752C331.384 190.34 334.698 191.793 337.149 191.975C339.827 192.201 343.912 191.748 344.82 188.888ZM339.055 167.691C340.008 167.373 340.962 167.146 341.96 167.101C342.959 167.055 343.912 167.01 344.82 167.6C345.274 167.918 345.637 168.417 345.546 168.962C345.501 169.234 345.41 169.461 345.228 169.642C344.774 170.233 344.003 170.55 343.277 170.641C342.006 170.823 340.599 170.55 339.328 170.369C337.966 170.233 336.65 169.824 335.379 169.325C336.559 168.644 337.739 168.099 339.055 167.691ZM345.41 150.261C348.088 149.988 347.316 152.848 345.637 153.665C344.593 154.164 343.277 154.8 342.233 154.936C340.735 155.163 338.42 155.617 337.013 155.481C339.237 153.483 342.414 150.533 345.41 150.261ZM333.381 134.737C333.2 133.421 333.018 131.878 333.608 130.607C334.062 129.608 335.242 128.7 336.286 129.472C336.876 129.88 337.194 130.607 337.467 131.242C338.647 134.283 336.513 137.642 334.789 140.32C334.244 138.505 333.654 136.644 333.381 134.737ZM329.16 152.757C327.889 152.031 321.398 148.309 324.803 146.312C327.254 144.859 329.886 148.173 330.976 149.852C332.02 151.395 332.655 152.984 333.154 154.709C331.793 154.164 330.476 153.483 329.16 152.757ZM326.437 165.739C325.574 165.376 324.666 164.967 323.986 164.332C323.078 163.515 322.261 161.563 323.759 160.791C325.62 159.929 328.252 162.471 329.387 163.742C330.386 164.922 330.976 166.284 331.566 167.645C329.796 167.055 328.116 166.465 326.437 165.739ZM322.215 182.942C319.583 181.217 318.856 176.36 322.624 177.677C326.028 178.811 328.116 185.302 328.116 185.302C328.116 185.302 324.848 184.667 322.215 182.942ZM331.021 186.982C331.793 186.755 332.564 186.528 333.381 186.301C334.516 185.938 335.696 185.711 336.876 185.574C337.83 185.438 338.874 185.529 339.736 185.62C341.143 185.756 342.505 186.119 342.505 187.526C342.46 189.387 340.326 189.705 338.647 189.796C337.557 189.841 336.922 189.614 335.833 189.433C333.881 188.979 332.474 188.343 331.021 186.982ZM300.61 215.487C301.608 213.58 303.696 213.126 305.557 212.264C307.055 211.583 308.099 210.448 308.689 208.996C309.234 207.589 309.234 206.046 308.78 204.684C308.734 204.457 309.098 204.593 309.234 204.82C310.051 206 310.55 207.362 310.822 208.769C311.276 210.993 311.004 213.217 310.142 215.26C308.417 219.572 305.149 221.841 302.244 220.525C300.337 219.708 299.656 217.302 300.61 215.487ZM191.945 118.624C196.348 118.624 199.934 122.209 199.934 126.612C199.934 131.015 196.348 134.601 191.945 134.601C187.542 134.601 183.956 131.015 183.956 126.612C183.956 122.209 187.542 118.624 191.945 118.624ZM295.027 160.837C294.981 160.791 285.131 149.761 285.131 142.817C285.086 142.181 285.131 141.5 285.313 140.865C286.175 137.097 289.897 134.737 293.619 135.6C297.024 136.417 299.339 139.639 298.975 143.089C300.201 139.866 303.651 137.915 307.1 138.686C307.463 138.732 307.781 138.868 308.144 138.958C310.459 139.866 312.093 142.09 312.411 144.496C312.547 145.359 312.456 146.176 312.275 146.993C311.639 150.034 309.098 152.485 306.556 154.391C304.195 156.161 301.517 157.705 298.885 159.021C297.705 159.657 296.343 160.201 295.027 160.837ZM367.47 56.2571C366.789 54.7592 367.47 52.989 369.013 52.3081C370.511 51.6273 372.281 52.3081 372.962 53.8514C373.643 55.3947 372.917 57.1649 371.419 57.8004C369.921 58.4812 368.151 57.8004 367.47 56.2571ZM377.864 67.4685C377.183 65.9707 377.864 64.2004 379.407 63.5196C380.905 62.8387 382.675 63.5196 383.356 65.0629C384.037 66.6061 383.311 68.3764 381.813 69.0118C380.315 69.6927 378.545 69.0118 377.864 67.4685ZM357.938 47.9961C357.257 46.4982 357.938 44.7279 359.481 44.0471C360.979 43.3662 362.749 44.0471 363.43 45.5904C364.111 47.1336 363.385 48.9039 361.887 49.5393C360.389 50.2202 358.619 49.5393 357.938 47.9961ZM205.38 116.399C205.38 113.721 207.514 111.588 210.192 111.588C212.87 111.588 215.003 113.721 215.003 116.399C215.003 119.077 212.87 121.211 210.192 121.211C207.514 121.211 205.38 119.032 205.38 116.399ZM149.641 329.099C149.641 331.369 147.78 333.23 145.51 333.23C143.241 333.23 141.38 331.369 141.38 329.099C141.38 326.83 143.241 324.969 145.51 324.969C147.78 324.969 149.641 326.83 149.641 329.099ZM271.423 39.1903C271.287 37.5109 272.74 35.9676 274.419 35.6952C276.099 35.4229 277.824 36.3307 278.822 37.6924C278.504 36.4669 278.232 35.1506 278.731 34.0158C279.094 33.1534 279.912 32.5179 280.729 32.1548C281.954 31.7463 283.316 31.8371 284.36 32.5633C285.449 33.3349 286.039 34.7874 285.631 36.013C285.358 36.9208 284.587 37.6924 284.314 38.6456C285.268 38.2371 286.266 37.7832 287.31 37.7378C288.354 37.647 289.489 37.9194 290.17 38.691C290.578 39.1903 290.805 39.7804 290.896 40.3705C291.032 41.2783 290.851 42.3223 290.306 43.0485C289.761 43.7747 288.944 44.2286 288.036 44.4102C287.129 44.5918 286.221 44.5464 285.313 44.4102C286.221 45.0457 286.992 45.9535 287.31 46.9975C288.218 49.9478 284.768 52.2174 282.226 50.9464C280.774 50.2656 279.912 48.5861 280.184 46.9975C279.73 48.0868 279.231 49.2216 278.187 49.8571C276.825 50.7649 274.828 50.311 273.784 49.0854C272.694 47.8145 272.604 45.7265 273.738 44.5464C274.465 43.7747 275.509 43.4116 276.371 42.7762C275.1 42.9577 273.829 42.5946 272.831 41.8683C272.15 41.1421 271.514 40.2343 271.423 39.1903ZM211.009 242.766C210.918 241.359 212.098 240.088 213.505 239.861C214.912 239.634 216.32 240.406 217.182 241.541C216.91 240.542 216.683 239.408 217.091 238.5C217.409 237.773 218.09 237.274 218.771 236.956C219.769 236.639 220.904 236.684 221.812 237.274C222.72 237.91 223.219 239.135 222.856 240.134C222.629 240.905 221.993 241.541 221.766 242.313C222.538 241.995 223.4 241.586 224.263 241.541C225.125 241.45 226.078 241.677 226.623 242.313C226.941 242.721 227.168 243.22 227.213 243.72C227.304 244.491 227.168 245.354 226.714 245.944C226.26 246.534 225.579 246.942 224.808 247.079C224.036 247.215 223.31 247.169 222.538 247.079C223.31 247.623 223.945 248.349 224.217 249.212C224.989 251.663 222.084 253.569 219.996 252.48C218.771 251.935 218.09 250.528 218.317 249.212C217.954 250.12 217.545 251.073 216.637 251.572C215.502 252.344 213.823 251.935 212.961 250.937C212.053 249.893 211.962 248.122 212.915 247.169C213.505 246.534 214.368 246.216 215.094 245.717C214.05 245.853 212.961 245.581 212.144 244.945C211.644 244.4 211.1 243.629 211.009 242.766ZM68.7098 251.754C67.3027 251.073 66.4856 249.439 66.7126 247.896C66.2587 248.94 65.7594 250.029 64.8062 250.664C63.4899 251.527 61.5835 251.118 60.5849 249.893C59.5409 248.667 59.4501 246.67 60.5395 245.49C61.2204 244.718 62.2643 244.4 63.0814 243.765C61.9012 243.947 60.6303 243.629 59.6317 242.903C58.8147 242.313 58.2246 241.405 58.1338 240.406C57.9976 238.772 59.4047 237.274 61.0388 237.047C62.6728 236.82 64.3069 237.637 65.3055 238.954C65.0332 237.773 64.7154 236.503 65.2147 235.368C65.5778 234.551 66.3495 233.961 67.1665 233.598C68.3466 233.189 69.663 233.28 70.707 234.006C71.7509 234.732 72.341 236.139 71.9779 237.365C71.7055 238.273 70.9793 238.999 70.707 239.907C71.6148 239.498 72.568 239.09 73.6119 238.999C74.6105 238.908 75.6999 239.181 76.3808 239.907C76.7893 240.361 77.0162 240.951 77.107 241.541C77.2432 242.449 77.0616 243.402 76.5169 244.128C76.0176 244.809 75.1552 245.263 74.3382 245.444C73.4758 245.626 72.6134 245.581 71.7509 245.444C72.6134 246.08 73.385 246.897 73.7027 247.941C74.5198 250.801 71.1609 252.979 68.7098 251.754ZM364.474 124.343C363.475 124.57 362.431 124.479 361.433 124.343C362.431 125.069 363.339 126.068 363.702 127.248C364.746 130.561 360.843 133.103 357.983 131.696C356.349 130.924 355.396 129.018 355.668 127.248C355.169 128.473 354.579 129.744 353.444 130.47C351.901 131.469 349.677 130.97 348.496 129.608C347.271 128.201 347.18 125.841 348.451 124.479C349.268 123.617 350.448 123.208 351.401 122.482C349.994 122.709 348.542 122.3 347.407 121.483C346.454 120.802 345.773 119.713 345.682 118.578C345.546 116.672 347.18 114.947 349.041 114.629C350.902 114.311 352.854 115.355 353.989 116.853C353.626 115.492 353.308 113.994 353.898 112.723C354.306 111.77 355.214 111.043 356.167 110.635C357.529 110.181 359.072 110.272 360.253 111.089C361.478 111.951 362.159 113.585 361.705 114.992C361.387 116.036 360.525 116.899 360.207 117.943C361.297 117.489 362.386 116.99 363.566 116.899C364.746 116.808 366.017 117.08 366.789 117.988C367.243 118.533 367.515 119.214 367.606 119.895C367.742 120.938 367.56 122.073 366.925 122.89C366.426 123.662 365.472 124.161 364.474 124.343ZM362.567 179.628C363.294 180.128 363.884 180.808 364.156 181.671C364.882 183.986 362.159 185.756 360.162 184.757C359.027 184.213 358.346 182.896 358.573 181.626C358.21 182.488 357.801 183.35 357.03 183.895C355.986 184.576 354.397 184.258 353.58 183.305C352.718 182.306 352.672 180.672 353.535 179.719C354.125 179.129 354.942 178.857 355.577 178.312C354.624 178.448 353.58 178.176 352.809 177.631C352.173 177.132 351.674 176.406 351.583 175.589C351.492 174.272 352.627 173.047 353.943 172.865C355.26 172.684 356.576 173.364 357.393 174.408C357.166 173.455 356.939 172.411 357.302 171.503C357.575 170.823 358.21 170.323 358.891 170.051C359.844 169.733 360.933 169.779 361.75 170.369C362.613 170.959 363.067 172.094 362.794 173.092C362.567 173.818 361.977 174.408 361.75 175.135C362.522 174.817 363.294 174.499 364.065 174.408C364.882 174.318 365.79 174.545 366.335 175.135C366.653 175.498 366.834 175.997 366.925 176.451C367.016 177.177 366.88 177.949 366.471 178.539C366.063 179.129 365.382 179.447 364.701 179.628C363.975 179.81 363.248 179.764 362.567 179.628ZM74.202 84.5354C71.6602 86.941 69.5722 87.1226 68.4374 86.3964C67.575 85.8517 67.2573 84.8531 67.6204 83.8999C68.1197 82.629 69.8899 81.5396 73.3396 81.9935C69.9807 80.9949 68.8006 79.2701 68.8459 77.9083C68.8913 76.9098 69.5722 76.0927 70.5708 75.9566C71.9325 75.775 73.7481 76.7282 75.1098 79.9963C74.3382 76.592 75.2006 74.731 76.3808 74.0502C77.2432 73.5963 78.3326 73.7778 78.9226 74.5949C79.7397 75.6842 79.8304 77.7722 77.6971 80.541C80.2389 78.1353 82.3269 77.9537 83.4617 78.68C84.3241 79.2247 84.6418 80.2233 84.2787 81.1765C83.7794 82.4474 82.0092 83.5368 78.5595 83.0829C81.9184 84.0815 83.0985 85.8063 83.0532 87.168C83.0078 88.1666 82.3269 88.9836 81.3283 89.1198C79.9666 89.3014 78.151 88.3481 76.7893 85.08C77.5609 88.4843 76.6985 90.3453 75.5183 91.0262C75.0644 91.2531 74.6105 91.3439 74.1566 91.2531C73.7027 91.1624 73.2942 90.89 72.9765 90.5269C72.1594 89.4375 72.1141 87.3496 74.202 84.5354ZM232.615 145.268C233.522 143.498 235.429 142.681 237.335 143.271C239.877 144.042 242.283 147.356 242.01 154.164C243.418 147.492 246.55 144.905 249.228 144.768C251.179 144.678 252.859 145.949 253.313 147.855C253.903 150.442 252.269 154.164 246.232 157.342C252.723 155.254 256.535 156.661 257.988 158.885C259.077 160.519 258.805 162.607 257.352 163.969C255.401 165.784 251.361 166.238 245.596 162.607C250.68 167.191 251.361 171.186 250.135 173.546C249.681 174.408 249.001 175.044 248.138 175.407C247.321 175.77 246.368 175.816 245.415 175.543C242.873 174.772 240.467 171.458 240.74 164.649C239.332 171.322 236.201 173.909 233.522 174.045C231.571 174.136 229.891 172.865 229.437 170.959C228.847 168.371 230.481 164.649 236.518 161.472C230.027 163.56 226.215 162.153 224.762 159.929C223.673 158.295 223.945 156.207 225.398 154.845C227.349 153.03 231.389 152.576 237.154 156.207C232.07 151.668 231.435 147.673 232.615 145.268ZM399.878 146.856C399.697 147.583 399.243 148.264 398.562 148.717C396.701 150.034 393.297 149.943 388.894 146.221C392.616 150.624 392.707 154.028 391.436 155.889C390.483 157.251 388.758 157.705 387.26 157.024C385.217 156.071 383.583 153.075 384.582 147.401C382.63 152.848 379.725 154.664 377.456 154.482C375.821 154.346 374.551 153.075 374.414 151.441C374.233 149.217 376.003 146.266 381.405 144.315C375.731 145.359 372.735 143.724 371.736 141.682C371.01 140.184 371.464 138.459 372.826 137.506C374.687 136.19 378.091 136.28 382.494 140.002C378.772 135.6 378.681 132.195 379.952 130.334C380.905 128.973 382.63 128.519 384.128 129.2C386.171 130.153 387.805 133.149 386.806 138.822C388.758 133.421 391.663 131.605 393.887 131.787C395.521 131.923 396.792 133.194 396.928 134.828C397.11 137.052 395.339 140.002 389.938 141.954C395.612 140.91 398.607 142.544 399.606 144.587C400.015 145.313 400.105 146.13 399.878 146.856ZM268.019 299.55C267.475 299.958 266.839 300.14 266.113 300.14C264.161 300.049 261.891 298.143 260.893 293.331C261.074 298.279 259.304 300.639 257.443 301.229C256.082 301.638 254.674 301.048 254.039 299.777C253.177 298.052 253.676 295.147 257.352 291.833C253.131 294.466 250.226 294.148 248.819 292.787C247.775 291.833 247.593 290.29 248.365 289.11C249.409 287.521 252.223 286.477 256.899 288.021C252.541 285.706 251.361 282.982 251.815 281.076C252.178 279.669 253.358 278.806 254.765 278.852C256.717 278.943 258.941 280.849 259.985 285.66C259.804 280.713 261.574 278.353 263.435 277.762C264.796 277.354 266.204 277.944 266.839 279.215C267.701 280.94 267.202 283.845 263.526 287.158C267.747 284.526 270.652 284.843 272.059 286.205C273.103 287.158 273.284 288.702 272.513 289.882C271.469 291.47 268.655 292.514 263.979 290.971C268.337 293.286 269.517 296.009 269.063 297.916C268.927 298.551 268.564 299.141 268.019 299.55ZM210.555 100.558C209.692 99.7865 209.511 98.561 210.101 97.6078C210.918 96.2915 213.142 95.3837 216.955 96.5184C213.369 94.7482 212.325 92.6148 212.643 91.0716C212.87 89.9368 213.823 89.1652 215.003 89.2106C216.546 89.256 218.453 90.7085 219.406 94.612C219.134 90.6177 220.495 88.6659 221.993 88.1666C223.083 87.8035 224.217 88.2574 224.808 89.256C225.579 90.6177 225.216 92.978 222.311 95.7468C225.625 93.5227 228.03 93.7042 229.21 94.7482C230.073 95.5198 230.254 96.7454 229.664 97.6986C228.847 99.0149 226.623 99.9227 222.81 98.7879C226.396 100.558 227.44 102.692 227.122 104.235C227.032 104.779 226.714 105.279 226.305 105.597C225.897 105.914 225.352 106.096 224.808 106.096C223.264 106.05 221.358 104.598 220.405 100.694C220.677 104.689 219.315 106.64 217.817 107.14C216.728 107.503 215.593 107.049 215.003 106.05C214.232 104.689 214.595 102.328 217.5 99.5596C214.095 101.784 211.69 101.557 210.555 100.558ZM22.9108 174.408C20.7321 172.911 19.4158 169.052 21.6853 162.607C18.3264 168.553 14.559 170.096 11.9717 169.415C10.0653 168.916 8.83979 167.191 9.02135 165.24C9.2483 162.562 11.9263 159.52 18.5987 158.295C11.7902 158.34 8.56744 155.889 7.8412 153.302C7.29651 151.395 8.20432 149.489 9.97455 148.627C12.3802 147.492 16.3746 148.264 20.7775 153.438C17.3278 147.583 17.8725 143.543 19.7335 141.637C21.0952 140.229 23.1832 140.048 24.8172 141.137C26.996 142.635 28.3123 146.493 26.0428 152.939C29.4017 146.993 33.1691 145.449 35.7563 146.13C37.6627 146.629 38.8883 148.354 38.7067 150.306C38.4797 152.984 35.8017 156.025 29.1293 157.251C35.9379 157.205 39.1606 159.657 39.8868 162.244C40.1592 163.197 40.0684 164.15 39.7053 164.967C39.3422 165.784 38.6613 166.465 37.7989 166.919C35.3932 168.054 31.3988 167.282 26.996 162.108C30.4456 167.963 29.901 172.003 28.0399 173.909C26.6328 175.362 24.5449 175.543 22.9108 174.408ZM159.581 105.597C159.581 105.597 162.078 107.276 163.848 109.999C165.845 113.041 166.889 118.397 166.889 118.397C165.391 116.672 164.801 117.489 163.984 117.625C163.984 117.625 166.481 119.577 167.116 123.072C168.433 130.38 166.299 133.058 166.299 133.058C166.299 133.058 163.394 124.797 159.99 125.704L160.398 129.88C160.398 129.88 157.63 125.931 151.774 125.114C147.371 124.479 149.505 127.565 149.505 127.565C149.505 127.565 146.781 127.339 144.875 124.343C142.969 121.347 142.015 117.67 142.015 117.67C141.334 118.26 140.926 119.804 141.108 123.208C136.205 112.087 139.11 109.909 136.251 105.37C136.251 105.37 142.515 105.143 147.235 107.004C152.001 108.865 158.764 117.761 158.401 116.808C158.084 115.855 152.001 107.004 148.007 105.143C144.058 103.282 138.566 102.283 138.566 102.283C138.566 102.283 143.786 97.744 149.913 98.4702C156.086 99.1965 162.85 104.008 163.485 106.096C161.987 105.597 160.444 105.097 159.581 105.597ZM203.474 288.157C202.339 291.516 205.108 290.29 205.108 290.29C205.108 290.29 204.518 292.378 201.885 293.513C199.253 294.602 196.166 294.829 196.166 294.829C196.575 295.465 197.709 296.009 200.387 296.327C190.855 298.597 189.539 296.009 185.545 297.598C185.545 297.598 186.271 292.651 188.404 289.11C190.538 285.615 198.572 281.53 197.8 281.666C196.983 281.802 189.085 285.343 187.043 288.202C185 291.062 183.411 295.283 183.411 295.283C183.411 295.283 180.552 290.472 182.05 285.706C183.502 280.94 188.314 276.219 190.084 276.038C189.448 277.172 188.813 278.307 189.131 279.033C189.131 279.033 190.81 277.309 193.261 276.265C195.939 275.13 200.387 275.084 200.387 275.084C198.799 276.038 199.343 276.628 199.343 277.263C199.343 277.263 201.204 275.538 204.155 275.538C210.146 275.538 211.962 277.626 211.962 277.626C211.962 277.626 205.017 278.761 205.199 281.575L208.603 281.802C208.558 281.984 205.017 283.618 203.474 288.157ZM267.021 184.712C267.384 181.081 272.286 174.726 271.696 175.135C271.106 175.543 266.113 181.399 265.568 184.53C265.023 187.617 265.387 191.611 265.387 191.611C265.387 191.611 261.256 188.888 260.621 184.485C259.985 180.082 262.028 174.499 263.344 173.637C263.299 174.817 263.208 175.952 263.707 176.451C263.707 176.451 264.388 174.408 265.931 172.684C267.656 170.732 271.151 169.007 271.151 169.007C270.243 170.369 270.924 170.641 271.151 171.186C271.151 171.186 272.014 169.098 274.328 168.008C279.14 165.739 281.409 166.692 281.409 166.692C281.409 166.692 276.28 170.278 277.506 172.457L280.32 171.367C280.32 171.367 278.096 174 278.641 178.221C279.049 181.353 280.774 179.311 280.774 179.311C280.774 179.311 281.137 181.217 279.412 183.123C277.733 184.984 275.372 186.346 275.372 186.346C275.917 186.709 277.052 186.664 279.367 185.938C272.604 191.43 270.516 189.841 267.974 192.655C267.974 192.61 266.657 188.343 267.021 184.712ZM81.3283 114.13C80.7382 114.039 80.3297 113.494 79.2858 114.675C79.2858 114.675 80.012 110.907 81.4191 108.728C82.69 106.777 84.4149 105.642 84.4149 105.642C83.8248 105.279 82.7354 105.642 81.6461 106.005C82.1 104.507 86.8659 101.148 91.2234 100.604C95.5809 100.104 99.2575 103.282 99.2575 103.282C99.2575 103.282 95.3994 103.962 92.5851 105.279C89.7709 106.595 85.5042 112.814 85.2773 113.494C85.0503 114.175 89.8163 107.866 93.1752 106.595C96.5341 105.279 100.937 105.46 100.937 105.46C98.8944 108.638 100.982 110.181 97.4873 118.033C97.5781 115.628 97.3057 114.584 96.8518 114.13C96.8518 114.13 96.171 116.717 94.8093 118.805C93.4476 120.938 91.5412 121.075 91.5412 121.075C91.5412 121.075 93.0391 118.896 89.9525 119.35C85.822 119.94 83.8702 122.709 83.8702 122.709L84.1879 119.758C81.7822 119.123 79.7397 124.978 79.7397 124.978C79.7397 124.978 78.2418 123.072 79.1496 117.943C79.5581 115.492 81.3283 114.13 81.3283 114.13ZM284.95 70.0558C286.221 68.104 288.173 67.5593 288.173 67.5593C287.719 67.2416 287.537 66.6515 286.221 67.287C286.221 67.287 288.218 64.3366 290.17 63.0203C291.94 61.8401 293.846 61.477 293.846 61.477C293.438 60.9777 292.394 60.8869 291.35 60.7962C292.258 59.7068 297.568 58.572 301.427 59.7068C305.285 60.8415 307.237 64.8813 307.237 64.8813C307.237 64.8813 303.696 64.0643 300.882 64.155C298.022 64.2458 292.167 67.9678 291.713 68.4671C291.259 68.9664 297.568 65.3352 300.882 65.4714C304.195 65.5622 307.872 67.287 307.872 67.287C305.012 69.2388 306.193 71.3267 300.428 76.6828C301.381 74.6856 301.517 73.687 301.29 73.1424C301.29 73.1424 299.793 75.0941 297.886 76.3651C295.98 77.636 294.3 77.0913 294.3 77.0913C294.3 77.0913 296.388 75.775 293.574 75.0488C289.852 74.0502 287.219 75.7296 287.219 75.7296L288.536 73.3239C286.72 71.9622 282.862 76.1381 282.862 76.1381C282.862 76.1381 282.317 74.0502 284.95 70.0558ZM102.163 100.785C103.615 103.872 107.382 105.823 110.651 104.779C113.011 104.008 114.69 101.965 116.234 100.059C114.826 103.1 115.689 107.049 118.185 109.273C122.679 113.222 130.94 110.544 130.713 104.099C130.622 101.738 129.533 99.5596 128.035 97.744C129.76 98.561 131.621 99.1965 133.482 99.2872C135.343 99.4234 137.386 98.9695 138.838 97.744C140.381 96.5638 141.334 94.612 141.561 92.6602C141.743 91.3439 141.607 89.9822 141.017 88.8021C140.018 86.8503 137.885 85.6247 135.751 85.2616C133.573 84.8985 131.349 85.1708 129.17 85.4886C130.305 83.7637 132.211 82.629 133.346 80.9041C134.844 78.5438 134.435 75.2757 132.62 73.1424C130.94 71.1452 128.217 70.1466 125.629 70.2374C123.632 70.4643 121.59 71.3267 120.319 72.87C118.639 74.9126 118.503 77.8176 118.458 80.4048C117.141 77.1367 114.146 74.3679 110.605 73.9594C107.065 73.5509 103.252 75.8658 102.571 79.4062C102.163 81.585 102.934 83.8091 104.25 85.5339C105.885 87.6219 108.336 89.029 110.968 89.3467C108.926 90.2092 106.52 90.2999 104.659 91.5255C101.663 93.3411 100.71 97.6532 102.163 100.785ZM121.59 81.585C124.903 81.585 127.627 84.3084 127.627 87.6219C127.627 90.9354 124.903 93.6588 121.59 93.6588C118.276 93.6588 115.553 90.9354 115.553 87.6219C115.553 84.3084 118.276 81.585 121.59 81.585ZM180.915 229.104C182.231 228.06 183.003 226.471 183.23 224.792C183.366 223.657 183.275 222.522 182.776 221.569C181.959 219.89 180.143 218.936 178.328 218.573C176.512 218.21 174.606 218.528 172.79 218.755C173.743 217.302 175.377 216.349 176.285 214.897C177.511 212.9 177.148 210.131 175.695 208.315C174.288 206.59 171.973 205.773 169.749 205.909C168.024 206.091 166.39 206.772 165.301 208.134C163.894 209.858 163.803 212.264 163.712 214.488C162.577 211.674 160.081 209.404 157.085 209.041C154.089 208.678 150.866 210.675 150.276 213.626C149.913 215.441 150.549 217.348 151.684 218.8C153.045 220.57 155.179 221.751 157.357 221.978C155.632 222.704 153.635 222.795 152.001 223.793C149.505 225.382 148.688 228.922 149.959 231.646C151.184 234.233 154.362 235.912 157.13 235.005C159.128 234.369 160.58 232.644 161.851 231.01C160.671 233.598 161.352 236.911 163.53 238.817C167.343 242.131 174.288 239.907 174.106 234.46C174.061 232.508 173.062 230.647 171.837 229.059C173.289 229.739 174.833 230.284 176.421 230.329C177.965 230.466 179.644 230.057 180.915 229.104ZM165.528 227.379C163.031 227.379 161.034 225.382 161.034 222.885C161.034 220.389 163.031 218.392 165.528 218.392C168.024 218.392 170.021 220.389 170.021 222.885C170.021 225.382 167.979 227.379 165.528 227.379ZM299.793 198.102C302.652 200.599 307.872 198.919 307.736 194.834C307.69 193.336 306.964 191.975 306.056 190.794C307.146 191.294 308.326 191.702 309.506 191.748C310.686 191.838 311.957 191.521 312.91 190.794C313.909 190.023 314.499 188.797 314.635 187.572C314.726 186.755 314.681 185.892 314.272 185.121C313.637 183.85 312.275 183.123 310.913 182.896C309.551 182.669 308.144 182.851 306.737 183.033C307.463 181.943 308.689 181.217 309.37 180.128C310.323 178.63 310.051 176.542 308.916 175.18C307.872 173.909 306.147 173.274 304.468 173.364C303.197 173.501 301.926 174.045 301.109 175.044C300.065 176.36 299.974 178.13 299.929 179.81C299.066 177.722 297.205 175.997 294.936 175.725C292.712 175.452 290.261 176.95 289.852 179.174C289.58 180.536 290.079 181.989 290.941 183.078C291.985 184.394 293.529 185.302 295.208 185.484C293.892 186.028 292.394 186.119 291.214 186.845C289.307 188.026 288.717 190.704 289.67 192.701C290.578 194.653 292.984 195.923 295.027 195.243C296.524 194.743 297.568 193.472 298.567 192.247C297.659 194.199 298.204 196.695 299.793 198.102ZM297.977 186.119C297.977 184.258 299.475 182.76 301.336 182.76C303.197 182.76 304.695 184.258 304.695 186.119C304.695 187.98 303.197 189.478 301.336 189.478C299.475 189.478 297.977 187.98 297.977 186.119ZM131.439 38.0102C131.439 35.3321 133.573 33.1988 136.251 33.1988C138.929 33.1988 141.062 35.3321 141.062 38.0102C141.062 40.6882 138.929 42.8215 136.251 42.8215C133.573 42.8215 131.439 40.6428 131.439 38.0102ZM190.855 99.6958C193.533 99.6958 195.667 101.829 195.667 104.507C195.667 107.185 193.533 109.319 190.855 109.319C188.177 109.319 186.044 107.14 186.044 104.507C186.044 101.829 188.177 99.6958 190.855 99.6958ZM279.004 315.164C279.004 317.842 276.87 319.976 274.192 319.976C271.514 319.976 269.381 317.797 269.381 315.164C269.381 312.486 271.514 310.353 274.192 310.353C276.87 310.353 279.004 312.486 279.004 315.164ZM93.4022 134.374C93.266 134.192 93.3114 134.011 93.5837 133.693C95.8533 131.968 100.165 131.061 104.659 130.607C104.795 130.697 104.387 129.472 104.25 129.426C103.797 129.154 100.937 128.428 101.028 127.883C100.892 127.656 101.119 127.565 101.3 127.429C102.48 127.747 103.479 128.156 104.614 128.655C105.068 128.836 105.204 128.292 105.658 128.065C105.794 128.11 104.977 124.479 105.839 123.934C106.656 124.161 106.565 126.658 106.656 127.611C106.565 127.747 107.382 128.156 107.7 128.428C107.882 128.564 109.97 123.48 110.151 123.072C110.56 122.073 112.33 117.852 113.692 118.17C113.919 118.215 114.146 118.442 114.327 118.624C115.87 120.212 117.278 121.846 117.55 124.116C117.822 125.931 117.323 129.154 115.961 130.561C115.734 130.834 115.598 131.333 115.734 131.378C117.777 130.47 121.862 129.336 123.768 131.651C125.175 133.285 123.95 137.052 122.679 138.55C120.909 141.863 114.963 139.685 113.238 138.732C114.418 141.228 114.282 147.719 109.697 147.946C107.428 148.445 103.025 148.218 103.161 144.814C103.116 142.817 104.432 140.638 105.612 138.822C99.4845 140.91 95.4447 139.549 93.4022 134.374ZM182.277 258.653C177.057 258.108 174.515 255.703 174.742 251.164C174.696 250.982 174.787 250.846 175.105 250.755C177.374 250.21 180.915 251.073 184.365 252.253C184.455 252.344 184.546 251.3 184.455 251.254C184.228 250.891 182.322 249.348 182.594 249.03C182.594 248.849 182.776 248.803 182.958 248.803C183.729 249.439 184.319 250.074 185 250.846C185.272 251.118 185.59 250.801 185.953 250.755C186.044 250.801 186.68 247.85 187.497 247.759C188.041 248.213 187.133 250.029 186.861 250.755C186.77 250.846 187.179 251.436 187.36 251.708C187.451 251.845 190.719 248.803 190.992 248.531C191.627 247.941 194.351 245.399 195.304 246.125C195.485 246.216 195.531 246.488 195.621 246.67C196.212 248.395 196.711 250.074 196.166 251.845C195.758 253.297 194.26 255.521 192.762 256.111C192.49 256.202 192.217 256.565 192.308 256.656C194.124 256.656 197.528 257.201 198.209 259.606C198.708 261.286 196.529 263.691 195.031 264.372C192.58 266.233 188.904 262.602 187.95 261.286C187.95 263.51 185.681 268.321 182.186 266.96C180.325 266.551 177.148 264.872 178.373 262.42C179.099 260.786 180.779 259.606 182.277 258.653ZM248.138 134.51C247.684 130.879 248.819 126.975 253.086 126.522C251.633 125.568 249.636 124.797 248.456 123.571C246.186 125.387 243.1 125.614 241.057 122.073C240.195 120.394 239.923 118.669 238.879 117.353C243.917 116.036 249.228 116.445 248.819 122.527C249.545 123.117 250.544 123.571 251.225 124.161C250.317 122.119 249.908 119.123 251.452 116.354C255.537 117.761 259.35 121.438 256.899 126.068C259.213 126.385 261.71 126.567 263.707 126.158C260.394 124.297 258.896 120.575 259.395 116.99C263.889 116.763 269.154 120.348 267.611 125.251C269.29 125.341 271.787 124.343 272.831 123.526C268.564 122.845 268.655 118.17 268.428 114.856C273.103 113.994 277.869 115.719 278.277 120.712C279.639 120.348 280.638 119.577 282.181 119.123C278.595 117.716 277.96 113.994 278.187 110.317C283.361 109.772 289.217 111.724 287.855 117.489C290.442 116.944 293.211 115.946 296.207 115.946C293.619 114.675 292.485 112.314 291.895 110.045C294.618 109.092 299.52 109.046 301.381 111.543C302.652 112.723 303.197 115.265 303.696 116.808C305.512 117.216 307.373 117.807 309.098 118.578C309.461 118.76 309.597 119.259 309.325 119.577L309.279 119.622C309.098 119.895 308.734 119.985 308.462 119.849C307.827 119.531 307.146 119.168 306.42 118.896C307.327 123.072 305.103 127.112 301.563 129.109C300.7 129.563 300.065 129.29 299.656 128.746C298.204 124.479 298.113 120.167 302.38 117.807C297.523 116.672 293.347 118.487 288.899 118.941C289.217 119.622 289.988 119.713 290.442 120.348C293.438 123.617 293.029 127.929 289.67 130.47C289.217 130.788 288.49 131.378 288.173 131.197C287.9 131.151 287.401 130.198 287.174 129.88C283.951 126.34 284.587 122.3 287.9 119.35C285.086 119.622 282.499 121.165 280.002 121.756C284.36 126.476 283.361 132.15 278.232 135.418C274.919 131.469 273.33 127.838 276.099 123.617C274.328 124.343 272.604 125.387 270.743 126.34C272.467 131.288 269.653 135.736 264.343 136.417C262.89 134.238 263.752 129.381 266.022 127.838C263.208 128.11 259.667 128.609 256.989 127.838C256.672 131.333 254.901 134.147 251.043 135.418C250.09 135.69 249.001 135.827 248.138 135.6C247.957 135.146 248.184 134.964 248.138 134.51ZM127.127 164.377C130.985 164.286 132.983 167.509 134.208 170.959C129.669 173.41 123.451 173.909 122.497 168.099C120.364 169.597 118.14 171.549 115.417 172.729C118.276 172.911 120.273 174.635 121.68 176.542C119.547 178.494 115.008 180.4 112.33 178.857C110.696 178.267 109.198 176.088 108.199 174.862C106.338 175.18 104.432 175.362 102.526 175.271C102.117 175.271 101.845 174.862 101.936 174.454V174.408C101.981 174.091 102.299 173.864 102.616 173.909C103.343 173.955 104.069 174.045 104.886 174C102.435 170.459 102.934 165.92 105.431 162.698C106.021 161.971 106.747 161.926 107.337 162.289C110.287 165.648 112.058 169.597 109.016 173.41C113.919 172.593 117.096 169.325 121.045 167.191C120.5 166.692 119.774 166.874 119.093 166.51C115.053 164.649 113.782 160.519 115.916 156.888C116.188 156.388 116.642 155.571 117.051 155.617C117.323 155.526 118.14 156.252 118.503 156.434C122.861 158.476 123.814 162.425 121.907 166.42C124.404 165.058 126.174 162.698 128.262 161.154C122.407 158.476 121.136 152.848 124.631 147.855C129.215 150.261 132.075 152.939 131.167 157.932C132.529 156.57 133.709 154.936 135.071 153.393C131.576 149.534 132.438 144.315 137.113 141.637C139.292 143.089 140.381 147.9 138.838 150.215C141.334 148.854 144.421 147.083 147.19 146.72C146.146 143.361 146.691 140.093 149.777 137.415C150.549 136.825 151.502 136.28 152.41 136.144C152.727 136.371 152.546 136.644 152.773 137.007C154.588 140.184 155.042 144.224 151.275 146.312C152.954 146.629 155.088 146.584 156.676 147.265C158.084 144.723 160.852 143.316 164.12 145.812C165.528 147.038 166.481 148.536 167.933 149.353C163.803 152.53 158.719 154.164 156.767 148.4C155.859 148.127 154.77 148.127 153.908 147.81C155.542 149.353 157.085 151.94 156.722 155.117C152.41 155.39 147.508 153.438 147.961 148.218C145.692 148.808 143.332 149.625 141.652 150.76C145.42 151.214 148.234 154.074 149.187 157.569C145.147 159.52 138.883 158.204 138.429 153.12C136.841 153.71 134.889 155.571 134.299 156.706C138.475 155.708 140.2 160.065 141.698 163.015C137.703 165.603 132.665 165.875 130.35 161.381C129.034 162.244 128.398 163.333 127.127 164.377ZM35.2116 184.258C35.2116 181.989 37.0726 180.128 39.3422 180.128C41.6117 180.128 43.4727 181.989 43.4727 184.258C43.4727 186.528 41.6117 188.389 39.3422 188.389C37.0726 188.389 35.2116 186.528 35.2116 184.258ZM75.6999 138.096C77.9694 138.096 79.8304 139.957 79.8304 142.227C79.8304 144.496 77.9694 146.357 75.6999 146.357C73.4304 146.357 71.5694 144.496 71.5694 142.227C71.5694 139.957 73.4304 138.096 75.6999 138.096ZM87.5468 153.393C91.0873 153.393 93.9923 156.298 93.9923 159.838C93.9923 163.379 91.0873 166.284 87.5468 166.284C84.0064 166.284 81.1014 163.379 81.1014 159.838C81.1468 156.298 84.0517 153.393 87.5468 153.393ZM282.453 303.363C282.453 300.685 284.587 298.551 287.265 298.551C289.943 298.551 292.076 300.685 292.076 303.363C292.076 306.041 289.943 308.174 287.265 308.174C284.587 308.174 282.453 305.995 282.453 303.363ZM294.209 238.364C294.209 236.185 295.934 234.46 298.113 234.46C300.292 234.46 302.017 236.185 302.017 238.364C302.017 240.542 300.292 242.267 298.113 242.267C295.934 242.267 294.209 240.497 294.209 238.364ZM189.948 217.892C189.948 215.714 191.672 213.989 193.851 213.989C196.03 213.989 197.755 215.714 197.755 217.892C197.755 220.071 196.03 221.796 193.851 221.796C191.672 221.796 189.948 220.026 189.948 217.892ZM274.192 203.186C274.192 200.054 276.689 197.603 279.775 197.603C282.907 197.603 285.358 200.099 285.358 203.186C285.358 206.318 282.862 208.769 279.775 208.769C276.689 208.769 274.192 206.273 274.192 203.186ZM123.133 205.728C123.859 203.912 125.902 203.004 127.763 203.731C129.578 204.457 130.486 206.499 129.76 208.36C129.034 210.176 126.991 211.084 125.13 210.358C123.36 209.631 122.452 207.543 123.133 205.728ZM245.188 269.32C243.145 268.503 242.101 266.188 242.918 264.1C243.735 262.057 246.05 261.013 248.138 261.83C250.181 262.647 251.225 264.962 250.408 267.05C249.591 269.093 247.276 270.091 245.188 269.32ZM366.335 148.4C366.426 148.854 366.471 149.262 366.426 149.716C366.244 151.35 365.019 152.712 363.884 153.847C362.749 154.891 361.478 155.798 360.162 156.661C359.572 157.069 358.891 157.432 358.255 157.796C358.255 157.75 352.582 152.621 352.173 149.035C352.082 148.672 352.082 148.354 352.128 147.991C352.355 145.994 354.17 144.587 356.122 144.859C357.938 145.086 359.299 146.629 359.345 148.445C359.753 146.675 361.478 145.495 363.294 145.722C363.475 145.722 363.657 145.767 363.838 145.812C365.064 146.13 366.017 147.174 366.335 148.4ZM224.263 269.865C224.263 267.686 225.988 265.961 228.166 265.961C230.345 265.961 232.07 267.686 232.07 269.865C232.07 272.043 230.345 273.768 228.166 273.768C225.988 273.768 224.263 271.998 224.263 269.865ZM160.898 264.372C163.077 264.372 164.801 266.097 164.801 268.276C164.801 270.455 163.077 272.179 160.898 272.179C158.719 272.179 156.994 270.409 156.994 268.276C156.994 266.097 158.719 264.372 160.898 264.372ZM336.74 216.985C338.919 216.985 340.644 218.71 340.644 220.888C340.644 223.067 338.919 224.792 336.74 224.792C334.562 224.792 332.837 223.022 332.837 220.888C332.882 218.71 334.607 216.985 336.74 216.985ZM359.072 227.515C359.072 229.694 357.348 231.419 355.169 231.419C352.99 231.419 351.265 229.649 351.265 227.515C351.265 225.336 352.99 223.612 355.169 223.612C357.348 223.612 359.072 225.336 359.072 227.515ZM176.784 148.717C174.606 148.717 172.881 146.947 172.881 144.814C172.881 142.635 174.606 140.91 176.784 140.91C178.963 140.91 180.688 142.635 180.688 144.814C180.688 146.993 178.963 148.717 176.784 148.717ZM93.3114 77.3637C91.1327 77.3637 89.4078 75.5934 89.4078 73.4601C89.4078 71.2813 91.1327 69.5565 93.3114 69.5565C95.4901 69.5565 97.215 71.2813 97.215 73.4601C97.215 75.6388 95.4901 77.3637 93.3114 77.3637ZM288.082 94.7936L311.14 96.7908C311.231 100.286 307.736 106.187 307.736 106.187C307.736 106.187 312.139 105.687 324.576 106.641C344.774 108.184 349.722 96.7908 349.722 96.7908C349.722 96.7908 346.817 84.7623 326.664 82.7651C314.227 81.5396 310.005 80.2687 310.005 80.2687C310.005 80.2687 312.456 86.6687 311.73 90.1184L288.672 88.1212C288.763 86.2602 287.31 84.6715 285.404 84.49C283.497 84.3084 281.818 85.7155 281.636 87.6673L281.092 93.9766C280.91 95.883 282.317 97.5624 284.269 97.744C286.175 97.9255 287.855 96.5638 288.082 94.7936ZM315.225 87.8035L314.953 86.8503L317.676 88.3935C323.441 91.707 322.624 97.9709 316.133 99.9227L313.727 100.649C315.906 96.6092 316.405 92.1609 315.225 87.8035ZM249.591 70.0104C245.279 69.5565 242.101 74.0048 239.469 76.5012C236.11 79.7694 232.842 83.1283 229.483 86.3964C228.847 87.0318 228.893 88.1212 229.619 88.8474C230.3 89.5737 231.389 89.6645 232.025 89.0744C232.705 88.4389 233.341 87.8035 234.022 87.168C238.379 82.9467 242.601 78.5438 247.14 74.5041C249.818 72.0984 252.95 74.5495 255.401 77.1821L238.425 93.568C237.789 94.2035 237.835 95.2475 238.561 95.9738C239.242 96.7 240.331 96.7908 240.966 96.2007L257.897 79.8601C259.213 81.2219 260.439 82.7197 261.074 84.4446C261.891 86.5779 260.848 88.1212 259.44 89.3921C258.26 90.4815 257.035 91.5255 255.9 92.6149C252.36 96.0191 248.864 99.4234 245.324 102.828C244.689 103.463 244.734 104.507 245.46 105.233C246.141 105.96 247.23 106.05 247.866 105.46C249.455 103.962 250.998 102.419 252.586 100.921C254.765 98.8333 256.944 96.7 259.123 94.612C261.483 92.2971 264.887 90.2546 264.796 86.3964C264.751 84.0361 263.48 81.4942 261.029 78.68L274.555 65.6529C275.781 66.7877 277.687 66.9239 278.822 65.8345C279.957 64.7451 279.866 62.7933 278.641 61.477L274.51 57.1649C273.239 55.8486 271.333 55.7124 270.153 56.8018C269.018 57.8912 269.018 59.7976 270.153 61.0685L256.717 73.9594C254.175 71.5537 251.815 70.2374 249.591 70.0104ZM75.5183 97.2901C75.2914 97.1085 75.019 96.9723 74.7921 96.8362C74.3382 96.5638 73.9297 96.2915 73.4758 96.0645C72.9311 95.7468 72.341 95.3837 71.7963 95.0659C71.524 94.9298 71.2516 94.8844 71.0247 95.0205C70.707 95.1567 70.6162 95.4744 70.5254 95.7922C70.48 95.883 71.8871 96.7454 72.0687 96.8816C72.6134 97.2447 73.2034 97.6532 73.7481 98.0163C74.429 98.4248 74.202 99.1965 73.6119 100.195C73.2488 100.831 72.9311 101.466 72.6134 102.101C72.5226 102.283 72.4318 102.419 72.341 102.601C71.2063 104.825 70.0715 107.004 68.9367 109.228C68.1197 110.816 67.3027 112.405 66.4856 113.994C65.0331 116.763 63.8984 117.126 63.2175 117.035L69.9807 97.1993C69.9807 97.1539 70.7523 94.9752 68.5282 93.795C67.802 93.4319 67.0757 93.0234 66.3041 92.7056C65.941 92.5241 65.5778 92.3879 65.1693 92.2063C64.9424 92.1156 64.4885 91.7978 64.2615 91.8886C64.1253 91.934 63.4899 92.1609 63.4445 92.6149C63.3991 92.8418 63.5807 93.0688 63.8984 93.2957C64.6246 93.7496 66.531 94.839 67.3481 95.3383C67.6204 95.5198 67.8474 95.7922 67.8927 96.1099C67.9835 96.5638 67.9381 97.2447 67.5296 98.1979C67.0757 99.2872 63.9892 108.002 61.4019 115.401C61.3111 114.992 61.2657 114.538 61.3111 114.039C61.3565 112.178 62.9452 95.656 62.9906 95.2929C63.036 95.1113 63.3083 92.9326 61.3111 92.1156C60.2672 91.707 59.2232 91.2985 58.1792 90.9354C57.6799 90.7538 57.226 90.5723 56.7267 90.4361C56.3636 90.2999 56.0005 90.1184 55.6373 90.1184C55.365 90.1184 54.8203 90.2092 54.7749 90.5269C54.7295 90.7992 55.0473 90.9808 55.365 91.117C56.3182 91.5255 57.226 91.9794 58.1338 92.4787C58.5877 92.7056 59.0416 92.9326 59.4955 93.2049C59.8586 93.3865 60.3125 93.5227 60.5849 93.8858C60.8118 94.2035 60.9026 94.5666 60.9026 94.9752C60.9026 95.6106 60.9026 96.2461 60.8572 96.8816C60.5395 100.785 59.5863 113.858 59.4955 115.719C59.4955 115.9 59.4955 116.082 59.5409 116.218C59.6317 116.672 59.904 117.58 60.4941 118.17C59.0416 122.3 57.8615 125.795 57.0444 128.11C56.8175 128.11 56.5905 128.156 56.409 128.201C55.9551 128.337 55.8189 128.655 55.8189 128.836L55.3196 130.561C55.2742 130.607 55.0473 130.697 54.9565 130.743C54.8657 130.788 54.7749 130.788 54.7295 130.834C53.7309 131.378 53.2316 132.105 53.1409 133.103C53.1409 133.33 53.0955 133.557 53.0955 133.784C53.0501 134.646 53.0047 135.509 52.687 136.326C52.1423 137.915 51.0983 140.547 50.0089 143.361C48.3749 147.583 46.6954 151.94 46.3323 153.347C46.2415 153.756 46.0599 154.255 45.9238 154.754C45.1975 157.024 44.1535 160.337 46.7862 161.291C49.4188 162.153 50.6898 158.885 51.5068 156.706C51.6884 156.207 51.8699 155.753 52.0515 155.344C52.687 154.028 54.0487 149.534 55.365 145.222C56.2728 142.317 57.0898 139.594 57.6345 138.051C57.9068 137.188 58.4061 136.507 58.9054 135.827C59.0416 135.645 59.1778 135.463 59.2686 135.282C59.8132 134.465 59.904 133.602 59.4501 132.558C59.4047 132.513 59.3593 132.422 59.314 132.331C59.2686 132.241 59.1324 132.059 59.1324 131.968L59.8132 130.289C59.904 130.107 59.9948 129.835 59.7225 129.426C59.5863 129.245 59.4047 129.063 59.1778 128.882L62.4913 119.168C65.2147 119.849 66.9849 116.808 67.0757 116.581C67.4388 115.9 74.3836 102.601 75.3368 100.513C75.6999 99.6958 76.1992 98.4702 75.6091 97.6986C75.6545 97.3808 75.6091 97.3355 75.5183 97.2901ZM171.882 171.276C170.067 172.094 164.484 174.545 159.309 176.905C163.667 170.278 168.886 162.335 170.566 159.657C173.607 154.891 171.837 156.388 170.657 156.706C169.477 157.024 162.441 163.606 159.854 166.783C156.903 170.414 154.316 174.363 151.593 178.176C150.549 179.628 149.732 181.444 148.007 182.261C146.736 182.851 145.828 183.169 144.421 182.806C142.197 182.261 139.065 183.26 137.022 183.85C136.977 183.759 136.705 183.305 136.705 183.305C136.705 183.305 108.835 193.336 107.292 193.836C105.748 194.335 101.482 194.88 101.618 196.559C101.754 198.284 102.526 199.691 103.524 200.236C104.523 200.78 106.52 199.464 108.154 198.783C109.788 198.102 138.475 187.39 138.475 187.39C138.475 187.39 138.384 187.118 138.339 187.027L138.974 186.755L140.064 190.023L142.605 188.797L141.788 186.936C141.788 186.936 142.832 186.482 144.239 186.618C145.147 186.709 145.828 186.936 146.918 187.345C147.371 188.343 147.508 189.841 147.371 191.248C147.326 191.793 147.144 192.474 146.918 193.155L145.147 191.793L143.332 193.926L145.964 195.651C145.828 195.969 145.692 196.241 145.601 196.468C145.465 196.423 145.147 196.287 145.147 196.287C145.147 196.287 130.532 222.023 129.669 223.43C128.807 224.792 125.947 227.969 127.127 229.195C128.307 230.42 129.851 231.01 130.985 230.783C132.12 230.556 132.756 228.241 133.573 226.653C134.39 225.064 148.96 198.148 148.96 198.148C148.96 198.148 148.779 198.011 148.37 197.784C149.187 196.468 151.139 193.926 151.184 191.475C151.23 189.75 151.82 187.526 153.181 186.346C154.18 185.484 155.632 185.03 156.813 184.44C158.174 183.804 159.491 183.169 160.852 182.488C164.574 180.672 168.387 178.993 171.882 176.769C171.973 176.723 172.064 176.633 172.2 176.587C175.513 174.363 182.458 168.462 182.095 167.963C180.87 166.465 175.468 169.688 171.882 171.276ZM151.184 185.892L150.004 186.8L148.552 186.165L148.325 184.621L149.505 183.713L150.957 184.349L151.184 185.892ZM155.814 278.534C149.641 282.029 149.505 290.109 150.276 294.33C149.278 292.968 147.961 291.788 146.781 290.79C144.194 288.565 140.971 286.568 137.476 286.432C135.706 286.341 133.754 287.022 132.302 288.021C129.578 289.882 128.217 292.877 128.444 296.009C128.625 298.506 130.259 302.092 133.3 302.001C138.248 301.819 145.964 296.781 150.685 297.417C151.638 299.55 152.637 301.093 153.681 302.228C155.042 303.726 156.404 304.497 157.584 305.133C158.764 305.768 159.718 306.268 160.535 307.13C160.535 307.13 160.535 307.13 160.58 307.175L148.642 317.978L152.364 322.064L154.815 319.839L173.743 334.274L188.223 321.201L175.74 300.957L178.192 298.733L174.47 294.648L161.987 305.814C161.987 305.814 161.987 305.814 161.942 305.768C160.852 304.543 159.627 303.953 158.492 303.363C157.357 302.727 156.223 302.092 155.088 300.866C154.18 299.868 153.272 298.506 152.364 296.418C153 291.334 159.082 289.065 162.668 286.296C163.576 285.57 164.393 284.662 164.62 283.482C164.711 282.937 164.665 282.347 164.529 281.757C163.621 278.171 158.855 276.991 155.814 278.534ZM258.442 207.226C258.578 204.366 258.124 201.143 256.308 198.828C254.311 196.241 251.134 194.97 248.047 195.606C247.775 195.651 245.687 196.105 245.687 196.287L245.732 193.881C243.1 191.157 241.148 190.114 237.88 189.433C237.063 184.712 236.881 183.759 236.337 181.898C235.52 179.174 233.386 177.313 230.617 176.814C228.53 176.451 226.351 176.86 224.626 178.085C220.405 180.99 219.815 185.711 218.816 189.478C218.271 189.569 217.772 189.705 217.227 189.841C215.684 190.068 212.507 191.384 212.416 191.384L211.463 201.416L199.57 188.343L201.159 179.174C201.613 178.04 201.204 176.905 200.024 176.86C193.67 177.54 185.091 183.487 183.411 188.389C182.867 189.433 183.094 190.114 184.41 190.295L194.305 192.565L209.466 217.529L208.875 226.426C218.226 233.325 234.703 233.961 242.192 229.467L242.964 224.474C245.823 222.885 248.365 222.023 250.998 220.071C252.723 218.846 254.447 217.484 255.718 215.759C257.806 212.9 258.306 210.176 258.442 207.226ZM186.135 187.118C185.636 187.617 185.136 187.889 184.909 187.753C184.682 187.617 184.955 187.027 185.409 186.482C185.908 185.983 186.407 185.711 186.634 185.847C186.861 186.028 186.634 186.618 186.135 187.118ZM188.949 183.078C189.539 182.715 190.129 182.579 190.265 182.806C190.402 183.033 190.038 183.532 189.448 183.895C188.858 184.258 188.268 184.394 188.132 184.167C187.996 183.94 188.359 183.441 188.949 183.078ZM189.358 186.528C188.767 186.891 188.177 187.027 188.041 186.8C187.905 186.573 188.268 186.074 188.858 185.711C189.448 185.348 190.038 185.211 190.175 185.438C190.356 185.665 189.948 186.165 189.358 186.528ZM192.898 184.122C192.263 184.44 191.672 184.485 191.536 184.213C191.446 183.986 191.854 183.532 192.49 183.214C193.125 182.896 193.715 182.851 193.851 183.123C193.942 183.396 193.533 183.804 192.898 184.122ZM193.307 181.262C192.671 181.58 192.081 181.625 191.945 181.353C191.854 181.126 192.263 180.672 192.898 180.355C193.533 180.037 194.124 179.991 194.26 180.264C194.351 180.491 193.942 180.945 193.307 181.262ZM196.711 181.762C196.075 181.989 195.44 181.989 195.349 181.762C195.258 181.489 195.712 181.126 196.393 180.854C197.029 180.627 197.664 180.627 197.755 180.854C197.846 181.126 197.392 181.489 196.711 181.762ZM197.392 179.22C196.756 179.447 196.121 179.447 196.03 179.22C195.939 178.947 196.393 178.584 197.074 178.312C197.709 178.085 198.345 178.085 198.436 178.312C198.481 178.539 198.027 178.947 197.392 179.22ZM224.989 182.533C226.532 179.719 232.342 179.855 233.477 183.033C233.795 183.94 233.704 183.169 234.113 188.979C231.525 188.616 228.666 188.525 225.67 188.661C224.717 188.706 223.764 188.797 222.81 188.888C223.31 186.391 223.673 184.848 224.989 182.533ZM224.944 195.106C224.989 193.382 228.575 191.339 234.975 191.157C238.652 192.201 241.193 193.699 242.782 195.742C237.244 196.65 231.389 196.695 224.944 195.106ZM254.674 209.586C253.676 214.806 249.228 218.256 243.781 219.345L244.689 203.912C246.05 202.596 246.504 200.826 246.64 198.874C249.091 197.421 251.542 197.966 253.177 200.326C254.992 202.959 255.174 206.908 254.674 209.586ZM68.3467 48.7677C70.1169 55.5309 71.9325 63.4742 69.1637 70.1012C67.6204 73.7324 62.9452 77.863 59.0416 76.0927C57.1352 75.2303 58.4969 74.0956 59.8132 74.2771C63.853 74.8672 66.8488 66.1976 66.4403 62.2486C66.3495 61.477 66.2587 60.66 66.1225 59.8883C65.2147 64.0643 63.7622 68.0586 61.2657 69.3296C53.504 73.3239 48.3295 62.0671 46.2415 56.711C43.6089 49.9024 44.5167 34.7874 54.1394 34.6513C59.5863 34.5605 58.9508 45.7719 56.8629 47.0429C55.9097 47.6329 55.1834 46.3166 55.1834 46.3166C55.8643 44.4102 56.6359 38.3279 55.0926 37.5109C52.5054 36.1491 51.1891 46.4528 51.643 49.5847C52.0969 52.4897 57.9068 69.2388 60.948 66.243C63.7168 63.4742 63.626 54.9408 63.853 49.5393C63.853 49.1308 63.853 48.7677 64.0346 48.3138C65.1693 46.4528 67.6204 46.0897 68.3467 48.7677ZM149.414 59.843C149.369 60.2515 147.054 60.4784 142.787 64.6543C138.52 68.8303 138.429 70.1012 138.203 70.1012C136.795 70.2828 133.573 68.921 133.936 66.47C134.798 60.8415 136.478 56.4841 139.292 51.3096C134.163 52.6259 130.713 57.6188 127.944 61.6132C125.811 64.6997 125.856 66.0161 125.675 66.0161C125.493 66.0614 120.818 67.1054 121.862 61.6132C121.998 60.8869 122.18 60.0699 122.407 59.2529C121 60.4784 119.547 61.3862 118.049 61.477C115.099 61.6586 113.646 60.0245 113.192 57.755C111.241 61.4316 111.331 62.3848 111.104 62.4302C109.834 63.0203 106.52 62.6572 106.202 60.1153C105.885 57.5734 106.202 53.1706 106.565 50.1748C104.931 52.8982 102.571 56.7564 100.982 57.7096C99.3483 58.7082 97.0788 57.2557 96.988 55.077C96.8065 51.7635 98.3497 47.0882 100.892 44.3194C100.483 43.2301 98.8036 39.3265 95.8987 44.9549C93.8561 48.9039 92.222 53.5337 92.222 57.9819C92.222 60.2515 92.7667 61.8855 91.9497 61.9763C91.1327 62.0217 88.1369 63.4742 88.0007 57.9366C88.0007 57.2557 88.0007 56.4841 88.0007 55.5763C86.3213 61.1139 86.7298 62.2033 86.5482 62.3394C85.4589 63.2472 82.1453 63.7465 81.2829 61.3862C80.2389 58.5266 79.6943 55.077 79.5127 52.172C78.4687 55.1677 77.1524 59.1621 75.9269 60.3876C74.5198 61.7947 71.9779 60.9777 71.3878 58.8898C70.1623 54.5777 71.4332 47.3606 75.1098 44.6825C77.0162 43.3208 79.4219 44.274 80.1028 45.4542C81.646 45.1365 83.7794 45.8173 83.8248 47.9053C83.8702 50.901 83.8248 56.3933 84.4149 59.2529C84.4149 59.2529 86.4574 52.0812 88.1823 48.6315C88.3638 43.5478 88.6816 38.6002 88.5908 38.3279C88.2277 37.1477 93.6745 35.5137 92.5398 42.2315C91.6319 47.406 91.4958 52.6713 91.4958 52.6713C92.1766 48.2684 93.6291 42.1861 97.5781 40.0073C100.302 38.5548 101.754 41.4598 102.208 43.1393C102.662 42.7762 103.161 42.5038 103.706 42.2769C105.158 41.7322 106.747 42.3222 107.564 43.0939C108.426 37.874 109.516 32.1094 112.512 27.7519C114.146 25.3916 117.822 25.8001 118.957 26.7533C121.453 28.8867 120.818 32.9264 118.866 36.1491C117.55 38.2825 114.963 40.0073 113.601 40.4612C112.012 46.4528 110.424 52.6259 109.788 58.8444C109.788 58.8444 111.785 55.1677 113.873 52.1266C115.326 47.406 118.412 44.3194 120.863 44.1833C123.224 44.0471 125.72 45.3634 124.404 49.2216C123.088 53.0798 119.729 55.667 117.868 53.8514C116.37 57.5734 117.005 59.5706 117.731 59.616C119.275 59.7522 121.771 56.938 123.905 54.3053C124.994 50.8556 125.993 47.8599 125.902 47.179C127.263 45.7265 130.713 47.4968 130.35 49.4485C129.442 54.3053 127.717 57.4373 127.717 57.4373C130.804 53.5337 135.343 48.4953 140.291 48.0868C143.559 47.8145 145.737 50.2656 143.468 54.1238C141.244 57.8458 139.156 62.0217 137.749 66.243C140.608 63.2472 144.92 58.1181 147.78 57.9819C148.552 57.9366 149.414 59.3891 149.414 59.843ZM118.548 52.172C119.729 53.216 121.544 50.7195 122.18 49.1762C124.268 44.2286 120.818 47.8145 118.548 52.172ZM114.282 38.0102C115.053 37.4655 116.097 36.5123 116.687 35.2867C117.913 32.8356 118.049 30.9292 117.641 29.4314C116.461 31.2924 115.235 34.6513 114.282 38.0102ZM79.2404 46.9067C78.5595 44.8641 76.6531 45.8173 75.5637 49.7663C74.0205 55.3947 74.5198 59.0713 74.9283 59.0259C76.5623 55.077 77.7425 50.9464 79.2404 46.9067ZM107.201 45.4542C106.974 43.4116 104.931 43.8655 103.025 47.3606C100.302 52.3989 99.9838 56.1209 100.347 56.1663C100.665 56.1663 105.204 48.4953 107.155 45.5904C107.201 45.545 107.201 45.4996 107.201 45.4542ZM385.717 77.3637C381.268 74.4133 370.738 78.0445 365.563 80.9495C361.024 83.5368 357.03 86.0786 356.894 85.8517C356.712 85.3524 358.982 81.3126 361.433 78.0445C363.884 74.8218 363.43 71.7353 361.342 71.1906C359.254 70.6459 350.948 72.9154 350.948 72.9154C354.079 68.921 358.392 65.2444 363.021 63.4742C365.064 62.6572 363.702 59.4344 362.567 59.1621C361.66 58.9351 356.031 60.2969 351.719 65.0175C350.675 65.1536 349.359 65.1082 347.906 64.6543C349.813 62.2033 351.174 59.2529 351.174 56.6656C351.174 52.4443 345.864 50.1748 343.322 52.1266C342.233 52.9436 341.143 54.8046 340.871 56.8926C340.099 57.3919 339.328 57.9366 338.601 58.6174C335.379 60.9323 331.52 64.4728 331.52 64.4728C334.153 58.8444 337.784 53.5337 341.37 48.45C342.823 48.4046 345.909 47.5421 347.906 45.9535C350.902 43.5478 352.899 39.9619 351.22 37.2839C350.494 36.1038 347.226 34.742 344.774 36.2399C342.959 35.3321 340.19 34.3335 336.65 33.2895C334.743 32.6995 332.655 32.3363 330.658 32.1094C329.977 31.2016 328.57 30.6115 326.664 30.3392C325.801 30.203 325.075 30.8385 324.303 31.9732C321.217 32.1548 318.539 32.6087 316.95 33.0172C313.909 33.7888 317.268 35.1959 318.493 35.1052C319.764 35.0144 321.035 35.0144 322.397 35.0144C319.356 40.6882 316.905 46.6797 315.044 52.8528C313.954 56.5748 310.278 65.6075 315.679 67.4685C317.813 67.9225 318.811 66.7877 317.722 65.426C315.815 63.0657 320.808 54.5777 322.533 51.0372C323.668 51.128 325.166 51.1734 326.618 51.128C329.296 51.0372 329.705 51.3096 330.431 50.2202C331.067 49.267 326.845 49.1308 323.486 49.1762C325.12 46.0443 326.845 43.1393 327.98 40.9151C329.115 38.691 329.932 36.9662 330.295 35.5591C332.701 35.9222 335.878 36.6484 338.193 37.2839C339.555 37.647 340.825 38.1463 342.006 38.6002C338.193 42.7762 335.333 47.7691 332.791 52.8074C330.749 56.5748 328.752 60.66 327.753 64.7451C327.163 67.1054 330.204 68.3764 331.566 68.1494C331.747 68.1494 331.974 67.287 334.789 64.6543C334.471 67.6047 336.377 70.0104 339.736 70.192C341.779 70.3281 344.366 68.6487 346.545 66.1976C347.725 66.7423 348.86 67.0146 349.949 67.1054C349.677 67.5139 349.404 67.9225 349.132 68.3764C344.774 75.6842 348.905 75.9566 349.767 76.002C351.401 76.0927 359.072 73.4601 359.072 73.4601C359.072 73.4601 355.214 78.8615 352.854 83.7183C350.494 88.5297 354.851 90.1638 355.714 90.5269C359.753 88.4389 363.339 85.307 367.56 83.4914C373.098 81.1311 378.863 79.6332 384.945 79.5424C386.171 79.497 386.488 77.9083 385.717 77.3637ZM349.041 39.2811C348.905 40.8244 348.179 42.5492 346.136 44.4556C345.138 45.4088 343.821 45.9989 342.868 46.2712C344.956 43.457 347.271 40.6428 349.041 39.2811ZM338.511 67.8317C337.376 67.4685 338.147 64.6089 340.871 61.5678C341.098 61.3862 341.234 61.1593 341.416 60.9777C341.824 61.9763 342.505 63.0203 343.458 63.8827C343.685 64.155 344.003 64.382 344.23 64.609C341.688 66.8785 339.237 68.104 338.511 67.8317ZM347.634 60.7508C346.999 61.704 346.272 62.5664 345.546 63.3834C344.23 62.2033 343.685 60.6146 343.73 59.0713C344.82 58.4358 345.773 58.4358 347.135 58.6174C348.133 58.799 347.452 54.85 345.274 55.1677C345.092 55.2131 344.82 55.2585 344.593 55.3039C345.047 54.4869 345.637 53.8514 346.227 53.806C347.543 53.6245 350.993 55.8032 347.634 60.7508ZM389.166 96.8362C385.717 94.1127 379.77 95.7014 375.776 97.1539C375.776 97.1539 380.361 94.7482 385.127 93.1141C391.345 90.9808 387.668 86.6233 386.806 87.5765C386.579 87.8035 381.132 90.3907 376.185 93.0234C372.644 93.5227 368.196 94.1581 367.107 92.8418C366.653 92.2971 367.56 90.4361 371.146 88.7113C371.192 91.2985 375.277 91.7524 378.817 89.846C382.358 87.9396 381.541 85.0347 379.77 83.6729C376.185 80.9495 370.284 83.7637 367.152 86.3964C364.428 88.6205 363.112 91.9794 366.108 94.5213C367.288 95.5198 369.058 95.8376 371.101 95.883C370.647 96.1099 370.284 96.3823 369.921 96.5638C365.246 99.378 367.742 101.421 368.105 102.101C368.514 102.828 369.694 101.511 371.6 100.422C375.322 98.334 379.907 97.6078 384.264 97.6078C390.755 97.6532 387.169 101.648 386.715 102.147C386.261 102.646 386.988 103.327 387.578 103.282C388.122 103.236 392.298 99.2872 389.166 96.8362ZM377.365 88.3028C375.867 88.9836 372.917 89.5737 372.78 87.985C377.365 86.2602 382.222 86.124 377.365 88.3028ZM329.024 211.22C327.844 212.037 324.394 214.488 320.763 218.528C319.628 216.848 318.902 215.805 318.811 215.578C318.357 214.624 314.953 216.122 315.906 218.029C316.042 218.301 316.905 219.663 318.176 221.705C315.997 224.837 312.593 230.511 311.73 233.643C310.641 237.683 313.591 236.775 314 235.776C314.817 233.734 316.133 229.558 319.719 224.02C322.715 228.65 327.072 235.095 331.112 240.088C332.292 243.81 334.425 249.212 334.425 249.212C332.428 247.396 327.753 240.86 326.981 239.771C324.394 235.912 322.034 236.639 320.944 239.408C319.129 244.037 321.988 251.845 322.715 253.115C322.079 252.208 318.766 247.759 316.178 244.174C313.637 240.633 311.186 241.314 310.051 243.538C308.417 246.806 318.675 264.236 318.675 264.236C316.496 262.284 313.228 257.927 311.367 255.521C310.051 253.887 308.099 254.386 307.191 255.385C306.011 254.75 303.968 254.976 303.061 256.974C302.198 258.925 303.197 262.42 304.604 265.371C305.784 269.093 307.963 274.449 307.963 274.449C305.829 272.588 298.022 262.194 296.207 259.788C296.57 258.562 296.524 255.748 295.435 253.524C293.846 250.165 291.032 247.26 288.309 247.442C287.129 247.532 285.222 249.439 286.175 252.071C286.266 252.298 286.357 252.48 286.448 252.707C282.045 250.891 276.326 253.206 272.921 262.194C268.836 272.951 272.15 277.309 273.557 277.49C274.964 277.626 275.463 277.082 275.645 276.537C275.1 275.629 275.009 272.633 275.463 269.047C276.734 271.544 278.958 275.039 282.363 279.896C284.224 282.483 285.903 284.707 287.537 286.659C286.811 287.521 286.13 287.567 285.767 287.158C285.268 286.477 284.224 288.52 286.13 289.746C287.174 290.426 288.309 290.381 289.489 288.883C293.71 293.468 296.842 295.555 298.612 296.1C301.79 297.053 303.197 293.604 302.879 293.331C301.381 292.242 302.38 295.465 296.524 289.519C294.936 287.885 293.347 286.069 291.804 284.208C292.167 283.164 292.575 281.938 292.939 280.577C294.663 274.54 294.754 268.684 293.756 263.918C295.027 265.552 296.343 267.141 297.614 268.639C297.931 269.002 303.424 275.674 306.737 277.989C308.825 279.487 311.231 277.172 311.549 275.811C311.594 275.629 310.868 275.084 309.143 271.181C310.641 271.68 312.139 271.09 312.456 269.638C312.774 268.004 311.639 264.055 310.732 261.15C312.547 263.419 314.908 265.961 317.449 267.777C319.537 269.274 321.943 266.96 322.261 265.598C322.488 264.872 312.048 246.398 312.003 245.354C313.273 246.261 319.764 256.52 323.532 260.423C327.481 264.463 329.024 259.833 329.069 259.652C329.115 259.47 327.98 258.971 326.482 255.34C323.214 247.532 323.214 242.539 323.35 241.768C325.847 245.989 328.797 249.575 333.2 252.662C335.288 254.159 337.694 251.89 338.011 250.483C338.057 250.256 337.194 249.666 335.106 244.764C335.469 245.127 335.833 245.49 336.196 245.808C340.644 249.893 343.231 246.398 343.504 245.218C343.594 244.945 342.641 244.31 340.326 238.681C338.011 233.053 338.329 231.01 337.966 230.783C337.603 230.602 336.513 230.556 335.923 231.464C335.288 232.417 339.918 243.947 339.918 243.947C332.61 237.183 325.756 227.016 322.125 220.525C323.032 219.345 323.986 218.119 325.075 216.894C328.979 212.446 330.567 211.674 330.885 211.311C331.293 210.948 331.067 209.813 329.024 211.22ZM289.807 249.938C291.123 250.664 292.53 251.935 293.801 254.341C294.436 255.567 294.663 256.837 294.709 257.7C292.621 254.84 290.669 251.845 289.807 249.938ZM288.672 260.559C291.078 268.457 290.442 276.628 289.534 281.258C285.449 275.947 281.999 270.409 280.275 267.05C278.822 264.236 277.778 263.101 276.825 262.874C277.143 261.876 277.506 260.923 277.914 259.969C280.638 253.796 286.539 253.479 288.672 260.559ZM310.868 268.866C310.55 269.093 308.326 266.233 306.283 260.923C304.876 257.155 305.739 255.612 307.418 256.928C308.507 260.196 311.095 268.684 310.868 268.866ZM109.153 231.646C102.48 232.236 100.665 241.995 100.029 248.713C99.8022 246.988 99.4845 244.854 99.2122 242.267C98.7582 236.911 98.1228 234.188 94.7185 234.732C90.8149 235.368 91.7681 239.589 91.9497 242.403C92.222 245.172 93.9015 260.106 96.8972 266.052C99.6661 271.453 105.748 270.682 105.385 268.639C105.158 267.277 103.978 267.595 102.934 266.006C101.618 258.562 104.432 239.907 106.248 236.639C109.425 230.874 110.651 234.778 113.011 245.762C113.465 247.896 113.737 249.802 113.873 251.618C111.967 251.754 108.653 253.342 107.155 258.789C105.022 266.551 108.608 268.367 110.514 268.049C112.33 267.731 118.503 265.099 119.683 252.798C121 240.497 116.778 230.965 109.153 231.646ZM111.649 264.826C109.47 267.005 108.744 264.191 110.605 258.744C111.785 255.203 113.102 254.069 114.055 253.706C114.236 259.879 112.829 263.646 111.649 264.826ZM122.497 241.042C122.044 239.271 123.224 238.591 124.404 238.409C126.31 238.182 127.173 240.724 125.811 241.677C124.449 242.721 122.951 242.857 122.497 241.042ZM141.153 243.72C140.472 242.539 138.339 241.632 135.978 242.857C133.8 243.992 132.393 247.351 131.621 250.528C130.214 254.114 128.534 259.742 128.398 260.287C127.944 256.611 127.218 245.762 127.127 244.991C126.946 244.31 123.95 242.676 122.044 244.673C122.27 251.391 122.815 256.565 123.36 259.788C124.222 265.28 129.76 264.327 130.985 263.328C131.167 263.192 130.849 262.33 131.893 258.018C132.983 259.334 134.889 259.652 136.251 258.608C137.749 257.382 139.383 253.479 140.517 250.528C140.563 253.388 140.608 257.064 140.79 261.104C137.249 263.192 135.025 268.684 135.434 274.04C136.115 282.165 139.201 283.482 142.106 282.71C146.237 281.575 146.146 277.354 146.282 274.404C146.418 271.453 145.283 249.121 145.102 246.125C145.011 243.901 142.696 243.311 141.153 243.72ZM140.79 279.487C139.927 280.395 138.203 277.263 138.384 271.726C138.52 268.276 139.519 264.826 140.971 264.145C141.153 268.14 142.106 278.08 140.79 279.487ZM135.252 257.11C134.798 257.155 134.617 253.479 136.432 247.896C137.703 243.947 139.61 243.084 140.291 245.127C138.974 248.486 135.615 257.064 135.252 257.11ZM270.97 100.649C270.97 102.918 269.109 104.779 266.839 104.779C264.57 104.779 262.709 102.918 262.709 100.649C262.709 98.3794 264.57 96.5184 266.839 96.5184C269.109 96.5184 270.97 98.3794 270.97 100.649Z" fill="#e5e7eb"/>
</svg>
