<svg width="32" height="32" viewBox="0 0 32 32" fill="none" xmlns="http://www.w3.org/2000/svg">
<path d="M16.3872 14.8896C18.5248 13.5424 21.5904 13.1552 24.6592 14.0832C28.9664 15.3888 31.8432 18.8384 31.6736 22.2112C31.6032 23.1136 30.3776 23.2 29.0208 22.9984C26.4128 22.608 24.9376 21.7696 22.7296 20.4736C21.1136 19.5264 19.408 18.6016 17.0912 18.272C16.1024 18.1312 15.5584 18.9248 16.5856 19.2672C19.6576 20.2912 21.1648 21.6896 23.2992 22.752C24.7008 23.4464 26.1312 23.8496 27.6704 24.064C28.4544 24.1728 29.4784 24.144 30.1376 24.2752C30.7552 24.3968 31.0528 24.6624 30.5312 25.312C28.6176 27.8304 24.5856 28.8832 20.5504 27.6608C16.9856 26.5792 14.4032 24.0224 13.7152 21.264C13.0816 18.7072 14.1184 16.32 16.3872 14.8896ZM14.0736 15.136C12.064 14.128 9.36321 13.952 6.69761 14.848C2.68481 16.1952 0.0832112 19.5296 0.336011 22.6976C0.428811 23.5456 1.58721 23.5904 2.85121 23.3632C5.29601 22.9184 6.65601 22.0864 8.69761 20.8064C9.78241 20.1248 10.912 19.456 12.2816 18.992C12.4512 17.5488 13.0752 16.224 14.0736 15.136ZM12.272 20.4832C10.7296 21.3184 9.63201 22.2208 8.23041 22.9696C6.92801 23.664 5.60001 24.08 4.15041 24.3264C3.41441 24.4512 2.45121 24.4512 1.83361 24.5952C1.25761 24.7264 0.988811 24.9856 1.49441 25.5808C3.36961 27.8976 7.19361 28.768 10.9536 27.5008C12.3584 27.0272 13.5904 26.3136 14.5888 25.4464C13.584 24.3456 12.8256 23.0464 12.464 21.5744C12.368 21.2096 12.304 20.8448 12.272 20.4832ZM20.8032 12.2912C20.5248 10.7424 19.8272 9.152 18.7168 7.7184C16.1184 4.3744 12.112 3.0208 9.20641 4.304C8.43521 4.672 8.77761 5.7792 9.41121 6.8992C10.6368 9.0592 11.8688 10.0704 13.7504 11.5776C14.5184 12.192 15.2864 12.8288 16.0064 13.6096C17.4624 12.768 19.12 12.3584 20.8032 12.2912ZM13.9104 13.7344C13.1008 13.104 12.32 12.544 11.5552 11.8464C10.4704 10.8512 9.63841 9.728 8.92801 8.4448C8.56641 7.792 8.24641 6.8832 7.91041 6.3488C7.59361 5.8496 7.26401 5.68 6.86721 6.352C5.67681 8.2752 5.64481 10.9888 6.76801 13.5552C9.07521 12.8768 11.664 12.8448 13.9104 13.7344Z" fill="#10B981"/>
</svg>
